<?xml version="1.0" encoding="UTF-8"?>
<svg version="1.1" xmlns="http://www.w3.org/2000/svg" width="640" height="360">
<path d="M0 0 C0.74935318 0.27264679 1.49870636 0.54529358 2.27076721 0.82620239 C10.64874323 3.89645958 18.96899403 7.12218861 27.2829895 10.36083984 C32.05748399 12.22036918 36.83548635 14.07084565 41.61328125 15.921875 C43.08297112 16.49152985 43.08297112 16.49152985 44.58235168 17.07269287 C55.42442681 21.27161193 66.28657989 25.4175312 77.15234375 29.5546875 C78.52530106 30.0779361 78.52530106 30.0779361 79.92599487 30.61175537 C82.50244433 31.59352907 85.07925841 32.57433782 87.65625 33.5546875 C88.4197879 33.8455423 89.18332581 34.13639709 89.97000122 34.43606567 C92.83056367 35.52273796 95.6864793 36.58689935 98.58984375 37.5546875 C98.58984375 38.2146875 98.58984375 38.8746875 98.58984375 39.5546875 C81.26059435 46.55194099 63.82828202 53.26788446 46.37402344 59.94604492 C36.42232587 63.75662907 26.47602606 67.57085291 16.59375 71.55859375 C15.15612046 72.13407543 13.71838149 72.70928383 12.28051758 73.28417969 C9.73646075 74.3014781 7.20473669 75.33928558 4.67456055 76.39160156 C3.56894775 76.83342773 2.46333496 77.27525391 1.32421875 77.73046875 C0.39834961 78.11114502 -0.52751953 78.49182129 -1.48144531 78.8840332 C-8.42020941 80.47296159 -14.6175254 77.99617421 -20.98828125 75.44140625 C-21.81322083 75.1194931 -22.6381604 74.79757996 -23.48809814 74.46591187 C-26.21546325 73.39966127 -28.93769108 72.32088057 -31.66015625 71.2421875 C-33.57837662 70.48978493 -35.49700542 69.73842292 -37.41601562 68.98803711 C-40.47098097 67.79337965 -43.52566787 66.59805799 -46.57910156 65.39949036 C-54.61830719 62.24551294 -62.67434958 59.13703929 -70.73828125 56.046875 C-72.51504242 55.36577415 -72.51504242 55.36577415 -74.32769775 54.6709137 C-79.01577683 52.87435494 -83.70416968 51.07862012 -88.39318848 49.28451538 C-91.65997602 48.0339803 -94.9257826 46.78091445 -98.19140625 45.52734375 C-99.16861633 45.1541098 -100.14582642 44.78087585 -101.15264893 44.39633179 C-102.05295837 44.05034943 -102.95326782 43.70436707 -103.88085938 43.34790039 C-105.05412781 42.89852867 -105.05412781 42.89852867 -106.25109863 42.44007874 C-108.3631346 41.57397024 -110.3832169 40.60294228 -112.41015625 39.5546875 C-112.41015625 38.8946875 -112.41015625 38.2346875 -112.41015625 37.5546875 C-111.57738914 37.24213264 -111.57738914 37.24213264 -110.72779846 36.92326355 C-82.23068874 26.22480285 -53.77596905 15.43351563 -25.41235352 4.38549805 C-24.42128098 3.99957489 -23.43020844 3.61365173 -22.40910339 3.21603394 C-20.56145711 2.49618665 -18.71411702 1.77555276 -16.86714172 1.0539856 C-16.05553085 0.73751068 -15.24391998 0.42103577 -14.40771484 0.0949707 C-13.35177628 -0.31751167 -13.35177628 -0.31751167 -12.27450562 -0.73832703 C-7.33023352 -2.61325917 -4.80101286 -1.79465806 0 0 Z " fill="#000000" transform="translate(459.41015625,111.4453125)"/>
<path d="M0 0 C7.55774538 2.15196375 14.80399127 4.77176935 22.10546875 7.66796875 C24.41062558 8.5701259 26.71596973 9.47180452 29.02148438 10.37304688 C32.61788643 11.78348272 36.21274532 13.19749759 39.80444336 14.61987305 C43.2965579 16.00068668 46.79419728 17.36662723 50.29296875 18.73046875 C51.36290573 19.15853317 52.43284271 19.5865976 53.53520203 20.02763367 C63.88850345 24.0398049 69.92146967 23.04948681 80.05078125 18.984375 C81.6317585 18.36601776 81.6317585 18.36601776 83.24467468 17.73516846 C86.60508257 16.41782207 89.9587443 15.08417851 93.3125 13.75 C95.55621702 12.86741193 97.80035387 11.98589037 100.04492188 11.10546875 C104.19181474 9.47623444 108.33657062 7.84186289 112.4777832 6.19824219 C113.39588776 5.83420288 114.31399231 5.47016357 115.25991821 5.09509277 C117.13137583 4.3471517 118.99956568 3.59099529 120.86483765 2.82775879 C121.76433136 2.46081909 122.66382507 2.09387939 123.59057617 1.71582031 C124.39218674 1.38559875 125.1937973 1.0553772 126.0196991 0.71514893 C128 0 128 0 130 0 C130.09286979 7.58889362 130.16385075 15.17772797 130.20724869 22.76706123 C130.22808269 26.29152694 130.25632202 29.81560253 130.30175781 33.33984375 C130.35371956 37.39587043 130.37297967 41.45149029 130.390625 45.5078125 C130.41127014 46.76739777 130.43191528 48.02698303 130.45318604 49.32473755 C130.45595858 60.16047747 130.45595858 60.16047747 126 65 C117.99955955 73.00044045 102.70981069 77.76425267 91.55078125 78.10546875 C90.70902344 78.07066406 89.86726563 78.03585938 89 78 C89 75.03 89 72.06 89 69 C95.27 68.67 101.54 68.34 108 68 C108.33 60.41 108.66 52.82 109 45 C112.63 44.67 116.26 44.34 120 44 C120.03738281 42.89140625 120.07476562 41.7828125 120.11328125 40.640625 C120.17895448 39.17705026 120.24540135 37.71351009 120.3125 36.25 C120.33505859 35.52039063 120.35761719 34.79078125 120.38085938 34.0390625 C120.59969298 29.66239037 121.18226249 27.31765868 124 24 C124.08916154 20.37350049 124.08916154 20.37350049 123 17 C120.55089194 14.82301506 119.14731225 14.99410751 115.875 15.125 C112.97134156 15.72629114 112.97134156 15.72629114 111.5625 17.6875 C110.81531419 20.75926387 111.20663941 22.9587844 112 26 C112.99 26.99 112.99 26.99 114 28 C114.1953125 30.3828125 114.1953125 30.3828125 114.125 33.125 C114.10695313 34.03507812 114.08890625 34.94515625 114.0703125 35.8828125 C114.04710937 36.58148438 114.02390625 37.28015625 114 38 C113.37351562 38.06058594 112.74703125 38.12117188 112.1015625 38.18359375 C111.28429687 38.26738281 110.46703125 38.35117188 109.625 38.4375 C108.81289063 38.51871094 108.00078125 38.59992188 107.1640625 38.68359375 C104.95727195 38.89090114 104.95727195 38.89090114 103 40 C102.67 47.26 102.34 54.52 102 62 C98.49834237 63.75082882 94.27343602 63.03314834 90.41015625 62.9609375 C86.57996587 62.83579913 86.57996587 62.83579913 83 64 C82.71371668 66.5263765 82.53282808 68.96566825 82.4375 71.5 C82.11924736 78.88075264 82.11924736 78.88075264 81 80 C78.36 80 75.72 80 73 80 C73 72.41 73 64.82 73 57 C77.95 57 82.9 57 88 57 C88.33 47.76 88.66 38.52 89 29 C93 31 93 31 94 32 C97.54622103 32.39402456 99.398846 32.38535513 102.4375 30.4375 C104.32604828 27.97391614 104.32604828 27.97391614 104 24.375 C103.33158172 21.02896809 103.33158172 21.02896809 101.3125 19.5 C98.25268043 18.83841739 96.01494584 19.21349239 93 20 C92.34 20.66 91.68 21.32 91 22 C88.67182036 22.36760731 86.3381615 22.70241581 84 23 C82.33657163 24.66342837 82.63951903 26.7825709 82.4375 29.0625 C82.31181641 30.44115234 82.31181641 30.44115234 82.18359375 31.84765625 C82.12300781 32.55792969 82.06242187 33.26820313 82 34 C79.69 34 77.38 34 75 34 C75 33.34 75 32.68 75 32 C70.2750297 31.00866636 70.2750297 31.00866636 65.625 31.8125 C63.84911756 32.91985727 63.84911756 32.91985727 63 35 C62.62384874 39.13064626 62.62384874 39.13064626 64.125 42.875 C66.89296119 44.53577671 68.83090818 44.38805206 72 44 C72.99 43.2575 72.99 43.2575 74 42.5 C76.71150404 40.46637197 78.69856678 40.77490228 82 41 C82 43.97 82 46.94 82 50 C78.70807706 51.64596147 75.15500794 51.01378964 71.53125 50.9375 C69.00488703 50.82047338 69.00488703 50.82047338 67 52 C66.67 61.24 66.34 70.48 66 80 C63.03 80 60.06 80 57 80 C56.67 67.79 56.34 55.58 56 43 C49.73 42.67 43.46 42.34 37 42 C36.8046875 34.3828125 36.8046875 34.3828125 37 32 C37.66 31.34 38.32 30.68 39 30 C40.1265408 26.79369156 40.17532893 25.42858183 38.875 22.25 C37.17493474 19.85948289 37.17493474 19.85948289 34.625 19 C31.10369569 19 29.60354452 19.61961644 27 22 C26.33333333 25.5 26.33333333 25.5 27 29 C27.49113281 29.39832031 27.98226563 29.79664063 28.48828125 30.20703125 C30.9295487 33.10248799 30.57569779 36.55881283 30.6875 40.1875 C30.790625 42.765625 30.89375 45.34375 31 48 C37.27 48.33 43.54 48.66 50 49 C50 58.9 50 68.8 50 79 C41 79 41 79 33 77 C32.505 68.09 32.505 68.09 32 59 C28.04 58.67 24.08 58.34 20 58 C19.61324042 49.23344948 19.61324042 49.23344948 23 45 C23.66676878 41.45749949 23.66676878 41.45749949 23 38 C20.98257918 35.73948997 20.98257918 35.73948997 18 35 C14.15820417 35.81287996 14.15820417 35.81287996 11 38 C10.66645597 41.41624258 10.66645597 41.41624258 11 45 C11.48597656 45.40089844 11.97195313 45.80179688 12.47265625 46.21484375 C14.93977217 49.09840379 14.57638959 52.55260236 14.6875 56.1875 C14.73874023 57.31188477 14.73874023 57.31188477 14.79101562 58.45898438 C14.87334294 60.30546838 14.93835281 62.15270994 15 64 C15.71027344 64.06058594 16.42054688 64.12117188 17.15234375 64.18359375 C18.53099609 64.30927734 18.53099609 64.30927734 19.9375 64.4375 C21.31228516 64.55931641 21.31228516 64.55931641 22.71484375 64.68359375 C25 65 25 65 26 66 C26.07179964 67.51928038 26.08392007 69.04167482 26.0625 70.5625 C26.05347656 71.38878906 26.04445313 72.21507812 26.03515625 73.06640625 C26.02355469 73.70449219 26.01195312 74.34257812 26 75 C16.13255995 73.40847741 8.4157549 69.44717671 2.05859375 61.61328125 C-0.41138466 57.84907061 -0.13018042 54.02030737 -0.09765625 49.70703125 C-0.0962413 49.00100266 -0.09482635 48.29497406 -0.09336853 47.56755066 C-0.08777764 45.31582374 -0.07522688 43.06419679 -0.0625 40.8125 C-0.05748382 39.28450665 -0.05292112 37.75651173 -0.04882812 36.22851562 C-0.0378112 32.48563865 -0.02055287 28.74283627 0 25 C2.33244804 24.93573048 4.66745849 24.93921716 7 25 C8.02019573 25.9793879 9.02149805 26.97895449 10 28 C14.07794425 28.42478586 15.53076119 28.31282587 19 26 C19.51711543 21.93135368 19.51711543 21.93135368 19 18 C16.92836371 15.75699365 16.92836371 15.75699365 14 15 C10.5989856 15.23728007 9.430466 15.569534 7 18 C4.69 18 2.38 18 0 18 C0 12.06 0 6.12 0 0 Z " fill="#010101" transform="translate(387,174)"/>
<path d="M0 0 C5.61 -0.0825 11.22 -0.165 17 -0.25 C18.75441406 -0.28641602 20.50882813 -0.32283203 22.31640625 -0.36035156 C23.73175845 -0.3720513 25.14712428 -0.38224007 26.5625 -0.390625 C27.27728516 -0.41108887 27.99207031 -0.43155273 28.72851562 -0.45263672 C35.09084391 -0.45697073 40.12191771 1.61641447 45.0234375 5.67578125 C49.90105441 11.58249074 51.67862337 17.26369354 51 25 C49.58378034 31.61760821 46.40245646 35.09246985 41 39 C41.49759093 44.30410759 44.33350491 48.26179819 47.0625 52.6875 C47.99475069 54.20987937 48.92333087 55.73451448 49.84765625 57.26171875 C50.26023682 57.93162842 50.67281738 58.60153809 51.09790039 59.29174805 C52 61 52 61 52 63 C46.06 63 40.12 63 34 63 C33.29875 61.56785156 32.5975 60.13570313 31.875 58.66015625 C30.91821051 56.79347871 29.95979152 54.92763576 29 53.0625 C28.54238281 52.11697266 28.08476562 51.17144531 27.61328125 50.19726562 C25.20207056 45.1892463 25.20207056 45.1892463 20.83984375 42.14794922 C18.39689822 41.78288817 18.39689822 41.78288817 15 42 C15.33 42.99 15.66 43.98 16 45 C16.02172852 46.99291992 16.02172852 46.99291992 15.87890625 49.23046875 C15.83056641 50.03291016 15.78222656 50.83535156 15.73242188 51.66210938 C15.67634766 52.49548828 15.62027344 53.32886719 15.5625 54.1875 C15.51029297 55.03248047 15.45808594 55.87746094 15.40429688 56.74804688 C15.27476311 58.83236299 15.13806823 60.91623182 15 63 C10.05 63 5.1 63 0 63 C0 42.21 0 21.42 0 0 Z M15 14 C15 18.95 15 23.9 15 29 C17.371875 29.103125 19.74375 29.20625 22.1875 29.3125 C23.29387817 29.38078003 23.29387817 29.38078003 24.42260742 29.45043945 C28.29623593 29.53152148 29.89039371 29.08421321 32.984375 26.70703125 C35.35117632 24.07775869 35.35117632 24.07775869 35.0625 20.375 C33.86635069 16.5754669 33.42716914 15.84369519 30 14 C27.30796435 13.78520992 24.92275886 13.71473724 22.25 13.8125 C18.66125 13.9053125 18.66125 13.9053125 15 14 Z " fill="#010101" transform="translate(116,196)"/>
<path d="M0 0 C14.85 0 29.7 0 45 0 C45 4.62 45 9.24 45 14 C35.43 14.33 25.86 14.66 16 15 C15.67 17.97 15.34 20.94 15 24 C15.7520874 23.99476318 16.5041748 23.98952637 17.27905273 23.98413086 C20.66519342 23.96342773 24.05132084 23.95036123 27.4375 23.9375 C28.62150391 23.92912109 29.80550781 23.92074219 31.02539062 23.91210938 C32.15009766 23.90888672 33.27480469 23.90566406 34.43359375 23.90234375 C35.47572021 23.89710693 36.51784668 23.89187012 37.59155273 23.88647461 C40 24 40 24 41 25 C41.09873816 26.99799572 41.12971799 28.99957158 41.125 31 C41.12886719 32.6396875 41.12886719 32.6396875 41.1328125 34.3125 C41 37 41 37 40 38 C38.22130274 38.15764405 36.43681524 38.25100677 34.65234375 38.31640625 C33.57275391 38.35830078 32.49316406 38.40019531 31.38085938 38.44335938 C30.24455078 38.48267578 29.10824219 38.52199219 27.9375 38.5625 C26.22723633 38.62727539 26.22723633 38.62727539 24.48242188 38.69335938 C21.65507805 38.79982839 18.82764262 38.90184207 16 39 C15.67 42.3 15.34 45.6 15 49 C24.9 49 34.8 49 45 49 C45 53.62 45 58.24 45 63 C30.15 63 15.3 63 0 63 C0 42.21 0 21.42 0 0 Z " fill="#000000" transform="translate(175,196)"/>
<path d="M0 0 C5.61 -0.0825 11.22 -0.165 17 -0.25 C18.75441406 -0.28641602 20.50882813 -0.32283203 22.31640625 -0.36035156 C23.73175845 -0.3720513 25.14712428 -0.38224007 26.5625 -0.390625 C27.27728516 -0.41108887 27.99207031 -0.43155273 28.72851562 -0.45263672 C35.08826518 -0.45696897 40.1595442 1.59822463 45.0234375 5.7109375 C50.46213826 12.40714132 51.8230293 18.43784035 51 27 C49.71416689 33.51099127 46.29197775 38.07000474 41 42 C33.46705666 46.37997943 24.36625258 45.21091393 16 45 C16 50.94 16 56.88 16 63 C10.72 63 5.44 63 0 63 C0 42.21 0 21.42 0 0 Z M16 14 C16 19.61 16 25.22 16 31 C18.8153125 31.0928125 18.8153125 31.0928125 21.6875 31.1875 C23.27111328 31.23970703 23.27111328 31.23970703 24.88671875 31.29296875 C28.41836599 30.96063055 30.18255429 30.11678496 33 28 C35.34549674 24.48175489 35.57991403 23.14224306 35 19 C33.51369948 15.83959345 33.51369948 15.83959345 30 14 C25.25080919 13.57510071 20.78619334 13.77634611 16 14 Z " fill="#000000" transform="translate(228,196)"/>
<path d="M0 0 C5.445 -0.0825 10.89 -0.165 16.5 -0.25 C18.20220703 -0.28641602 19.90441406 -0.32283203 21.65820312 -0.36035156 C30.47282788 -0.47171848 37.04605631 -0.27492824 44.0234375 5.74609375 C44.69246094 6.58333984 44.69246094 6.58333984 45.375 7.4375 C45.83648437 7.99308594 46.29796875 8.54867187 46.7734375 9.12109375 C50.83417699 15.3415259 50.69687372 21.79606793 50 29 C48.34857013 34.88321891 45.1031847 38.62997237 40 42 C32.48812851 45.77171699 24.22414738 45.62954291 16 46 C15.67 51.61 15.34 57.22 15 63 C10.05 63 5.1 63 0 63 C0 42.21 0 21.42 0 0 Z M15 14 C15 19.61 15 25.22 15 31 C18.0628125 31.0928125 18.0628125 31.0928125 21.1875 31.1875 C22.91033203 31.23970703 22.91033203 31.23970703 24.66796875 31.29296875 C28.33291639 30.97072834 30.12408446 30.25816473 33 28 C34.56322154 24.32982769 35.2672 22.09309092 34.3125 18.1875 C33.04459233 15.72055475 33.04459233 15.72055475 30 14 C27.3886146 13.85730134 24.91622711 13.81227296 22.3125 13.875 C18.6928125 13.936875 18.6928125 13.936875 15 14 Z " fill="#010101" transform="translate(59,196)"/>
<path d="M0 0 C5.18479983 3.09303547 8.81836321 7.13728336 11.85546875 12.34375 C12.54296875 15.09375 12.54296875 15.09375 12.54296875 25.09375 C2.64296875 25.09375 -7.25703125 25.09375 -17.45703125 25.09375 C-15.13451699 29.97870525 -15.13451699 29.97870525 -12.45703125 31.09375 C-10.91679129 31.16325541 -9.37368137 31.17827357 -7.83203125 31.15625 C-6.60613281 31.14271484 -6.60613281 31.14271484 -5.35546875 31.12890625 C-4.72898438 31.11730469 -4.1025 31.10570312 -3.45703125 31.09375 C-3.12703125 30.10375 -2.79703125 29.11375 -2.45703125 28.09375 C2.16296875 28.09375 6.78296875 28.09375 11.54296875 28.09375 C10.32381463 34.1895206 8.10689799 37.01534515 3.54296875 41.09375 C-2.30589012 44.67662095 -8.95164307 45.02330035 -15.55859375 43.66015625 C-21.74180457 41.73834748 -26.29623182 37.7870313 -29.55859375 32.2109375 C-32.18830789 26.14047589 -32.62327518 19.7544601 -30.61328125 13.4453125 C-27.8827018 7.30150875 -24.30452291 3.4089597 -18.45703125 0.09375 C-12.72259712 -1.81772804 -5.71513517 -2.10796718 0 0 Z M-16.45703125 13.09375 C-16.45703125 13.75375 -16.45703125 14.41375 -16.45703125 15.09375 C-11.50703125 15.09375 -6.55703125 15.09375 -1.45703125 15.09375 C-2.13237642 12.05529763 -2.13237642 12.05529763 -4.20703125 10.90625 C-9.14690307 9.1224074 -12.27688441 9.98849806 -16.45703125 13.09375 Z " fill="#010101" transform="translate(194.45703125,137.90625)"/>
<path d="M0 0 C4.92006067 2.32584686 7.31231435 5.32143608 10 10 C11.17942085 13.53826255 11.11289189 16.34148726 11.09765625 20.07421875 C11.0962413 20.7580513 11.09482635 21.44188385 11.09336853 22.1464386 C11.08777876 24.32683722 11.07522822 26.50713251 11.0625 28.6875 C11.05748367 30.16731622 11.052921 31.64713406 11.04882812 33.12695312 C11.03781271 36.75133557 11.02055512 40.3756577 11 44 C6.71 44 2.42 44 -2 44 C-2.04898438 42.25332031 -2.09796875 40.50664062 -2.1484375 38.70703125 C-2.22348053 36.40883852 -2.2990277 34.1106622 -2.375 31.8125 C-2.4059375 30.66201172 -2.436875 29.51152344 -2.46875 28.32617188 C-2.50742188 27.21435547 -2.54609375 26.10253906 -2.5859375 24.95703125 C-2.63306885 23.42526245 -2.63306885 23.42526245 -2.68115234 21.86254883 C-3.00876795 18.92128312 -3.77312194 16.67975997 -5 14 C-8.30567489 13.14612895 -8.30567489 13.14612895 -12 13 C-14.94572605 15.17053499 -15.84060941 16.52182823 -17 20 C-17.14889747 21.84466442 -17.2479101 23.69357275 -17.31640625 25.54296875 C-17.35830078 26.61611328 -17.40019531 27.68925781 -17.44335938 28.79492188 C-17.50233398 30.47424805 -17.50233398 30.47424805 -17.5625 32.1875 C-17.60568359 33.31865234 -17.64886719 34.44980469 -17.69335938 35.61523438 C-17.7994901 38.41001025 -17.90025397 41.20498898 -18 44 C-22.29 44 -26.58 44 -31 44 C-31 29.81 -31 15.62 -31 1 C-26.71 1 -22.42 1 -18 1 C-17.67 1.66 -17.34 2.32 -17 3 C-16.236875 2.505 -15.47375 2.01 -14.6875 1.5 C-9.69229431 -0.53194808 -5.32670827 -0.70652315 0 0 Z " fill="#010101" transform="translate(112,137)"/>
<path d="M0 0 C1.28132813 0.00902344 2.56265625 0.01804687 3.8828125 0.02734375 C4.87023437 0.03894531 5.85765625 0.05054687 6.875 0.0625 C6.875 3.3625 6.875 6.6625 6.875 10.0625 C8.525 10.0625 10.175 10.0625 11.875 10.0625 C11.875 10.3925 11.875 10.7225 11.875 11.0625 C14.845 11.5575 14.845 11.5575 17.875 12.0625 C17.875 16.0225 17.875 19.9825 17.875 24.0625 C14.245 24.0625 10.615 24.0625 6.875 24.0625 C7.205 30.0025 7.535 35.9425 7.875 42.0625 C11.175 42.3925 14.475 42.7225 17.875 43.0625 C17.90187279 44.87492052 17.92133715 46.68745233 17.9375 48.5 C17.94910156 49.50933594 17.96070313 50.51867187 17.97265625 51.55859375 C17.875 54.0625 17.875 54.0625 16.875 55.0625 C9.95012951 55.63047045 3.9026642 55.70421379 -2.125 52.0625 C-6.2978722 47.77981537 -7.26210249 44.3536691 -7.22265625 38.515625 C-7.21782227 37.24912109 -7.21782227 37.24912109 -7.21289062 35.95703125 C-7.20451172 35.08433594 -7.19613281 34.21164063 -7.1875 33.3125 C-7.18298828 32.42433594 -7.17847656 31.53617188 -7.17382812 30.62109375 C-7.162074 28.43482671 -7.14564249 26.24869821 -7.125 24.0625 C-9.765 24.0625 -12.405 24.0625 -15.125 24.0625 C-15.17889087 22.10446493 -15.21774217 20.14601091 -15.25 18.1875 C-15.27320312 17.09695312 -15.29640625 16.00640625 -15.3203125 14.8828125 C-15.125 12.0625 -15.125 12.0625 -13.125 10.0625 C-11.805 10.0625 -10.485 10.0625 -9.125 10.0625 C-9.125 7.0925 -9.125 4.1225 -9.125 1.0625 C-6.12186252 -0.43906874 -3.33432478 -0.03031204 0 0 Z " fill="#010101" transform="translate(142.125,125.9375)"/>
<path d="M0 0 C0.00142502 0.61752136 0.00285004 1.23504272 0.00431824 1.87127686 C0.02399657 8.29549646 0.07823004 14.7187635 0.15258789 21.14257812 C0.17579265 23.54029508 0.19016937 25.93811432 0.19555664 28.3359375 C0.20482765 31.78190032 0.24578066 35.22624871 0.29296875 38.671875 C0.2890361 39.74491882 0.28510345 40.81796265 0.28105164 41.92352295 C0.23111407 47.85041086 0.23111407 47.85041086 3.48168945 52.52050781 C4.31273193 53.00874023 5.14377441 53.49697266 6 54 C7.2517847 57.75535411 7.77373976 61.11710414 7 65 C4.93384829 68.3249149 2.53109208 71.23445396 -1 73 C-5.539219 73.54399285 -8.9544269 73.62289461 -12.9375 71.25 C-16.48862888 67.37604122 -17.5624848 64.51793962 -17.4609375 59.10546875 C-16.61665723 55.2489682 -13.98681926 52.47611959 -11 50 C-10.34 50 -9.68 50 -9 50 C-9 34.49 -9 18.98 -9 3 C-1 0 -1 0 0 0 Z " fill="#010201" transform="translate(553,160)"/>
<path d="M0 0 C4.62 0 9.24 0 14 0 C14.02463956 7.81453214 14.04283105 15.62904188 14.05493164 23.44360352 C14.05997383 26.10441481 14.06680736 28.76522332 14.07543945 31.42602539 C14.08751009 35.24105516 14.09322929 39.05604844 14.09765625 42.87109375 C14.10281754 44.06899033 14.10797882 45.2668869 14.11329651 46.50108337 C14.11337204 47.6021492 14.11344757 48.70321503 14.11352539 49.83764648 C14.115746 50.81249496 14.11796661 51.78734344 14.12025452 52.79173279 C14 55 14 55 13 56 C8.71 56 4.42 56 0 56 C0 37.52 0 19.04 0 0 Z " fill="#000000" transform="translate(58,125)"/>
<path d="M0 0 C4.29 0 8.58 0 13 0 C13 19.14 13 38.28 13 58 C8.71 58 4.42 58 0 58 C0 38.86 0 19.72 0 0 Z " fill="#000000" transform="translate(235,123)"/>
<path d="M0 0 C4.29 0 8.58 0 13 0 C13 19.14 13 38.28 13 58 C8.71 58 4.42 58 0 58 C0 38.86 0 19.72 0 0 Z " fill="#010101" transform="translate(213,123)"/>
<path d="M0 0 C4.62 0 9.24 0 14 0 C14.02464574 5.96313166 14.042834 11.92623395 14.05493164 17.8894043 C14.05997278 19.91968298 14.06680557 21.94995802 14.07543945 23.98022461 C14.08751467 26.89177347 14.09323034 29.8032745 14.09765625 32.71484375 C14.10281754 33.6283812 14.10797882 34.54191864 14.11329651 35.48313904 C14.11349168 37.65575427 14.06211805 39.82827296 14 42 C13 43 13 43 10.3125 43.1328125 C9.219375 43.13023437 8.12625 43.12765625 7 43.125 C5.906875 43.12757813 4.81375 43.13015625 3.6875 43.1328125 C1 43 1 43 0 42 C-0.08874135 38.89748799 -0.11518455 35.8173188 -0.09765625 32.71484375 C-0.0962413 31.78402481 -0.09482635 30.85320587 -0.09336853 29.8941803 C-0.08775172 26.90858809 -0.0751964 23.92306971 -0.0625 20.9375 C-0.05748716 18.91862087 -0.05292388 16.89974057 -0.04882812 14.88085938 C-0.03777683 9.92054428 -0.02050095 4.96028468 0 0 Z " fill="#000000" transform="translate(256,138)"/>
<path d="M0 0 C3.45036628 2.27410505 5.47093885 4.17385611 7 8 C7.34050529 12.88057582 6.66327491 16.18366164 3.5625 20 C-0.4952935 23.16705834 -2.83614786 23.35009167 -8 23 C-11.21182757 21.4670823 -13.69540217 19.70456936 -16 17 C-17.4367494 12.48327284 -17.42313369 8.9520508 -15.5 4.625 C-10.99927654 -0.10075963 -6.32839581 -2.06360733 0 0 Z " fill="#D7FC8D" transform="translate(296,239)"/>
<path d="M0 0 C0.33 0.66 0.66 1.32 1 2 C2.85625 2.1546875 2.85625 2.1546875 4.75 2.3125 C7.99212176 2.67403156 9.13093038 3.0845592 12 4.9375 C14.83830641 9.2836567 14.77306081 12.94601102 14 18 C12.38727433 21.68623011 11.369675 22.75355 8 25 C3.49717589 25.72517392 0.00714346 25.60000036 -3.9375 23.25 C-7.48862888 19.37604122 -8.5624848 16.51793962 -8.4609375 11.10546875 C-7.61665723 7.2489682 -4.98681926 4.47611959 -2 2 C-1.34 2 -0.68 2 0 2 C0 1.34 0 0.68 0 0 Z " fill="#D4F88A" transform="translate(544,208)"/>
<path d="M0 0 C2.4375 1.625 2.4375 1.625 4 4 C4.60024477 7.60146865 4.45562482 9.27859404 2.5 12.375 C-0.53367312 14.34688753 -2.51951801 14.64275043 -6.08984375 14.44921875 C-8 14 -8 14 -10.5625 11.875 C-12 9 -12 9 -12 5.875 C-11 3 -11 3 -9.375 1.125 C-6.02604821 -0.46134558 -3.65973254 -0.45746657 0 0 Z " fill="#020202" transform="translate(267,120)"/>
<path d="M0 0 C2.1826086 2.12198059 3.16854916 3.39290975 4.25 6.1875 C4.2265625 8.546875 4.2265625 8.546875 3.875 10.9375 C3.70871094 12.13632813 3.70871094 12.13632813 3.5390625 13.359375 C3.44367188 13.96265625 3.34828125 14.5659375 3.25 15.1875 C2.92 15.1875 2.59 15.1875 2.25 15.1875 C2.25 11.8875 2.25 8.5875 2.25 5.1875 C1.26 4.8575 0.27 4.5275 -0.75 4.1875 C-1.08 3.1975 -1.41 2.2075 -1.75 1.1875 C-6.04 0.8575 -10.33 0.5275 -14.75 0.1875 C-10.36306074 -4.19943926 -4.94000788 -3.25591429 0 0 Z " fill="#DDF6A2" transform="translate(298.75,240.8125)"/>
<path d="M0 0 C0.33 0 0.66 0 1 0 C1 17.49 1 34.98 1 53 C0.67 53 0.34 53 0 53 C0 35.51 0 18.02 0 0 Z " fill="#000000" transform="translate(56,126)"/>
<path d="M0 0 C0.33 0 0.66 0 1 0 C1 13.2 1 26.4 1 40 C0.67 40 0.34 40 0 40 C0 26.8 0 13.6 0 0 Z " fill="#000000" transform="translate(79,139)"/>
<path d="M0 0 C5.4852071 0.60946746 5.4852071 0.60946746 7.8125 2.375 C9.80820358 5.1059628 10.17535153 7.71546742 10.25 11 C10.28867187 12.0209375 10.28867187 12.0209375 10.328125 13.0625 C9.90799002 15.54329705 8.88936477 16.40895598 7 18 C7.06960938 16.77023438 7.06960938 16.77023438 7.140625 15.515625 C7.17671875 14.43796875 7.2128125 13.3603125 7.25 12.25 C7.29640625 11.18265625 7.3428125 10.1153125 7.390625 9.015625 C6.90914917 5.29863162 5.88248516 4.30184066 3 2 C2.01 1.34 1.02 0.68 0 0 Z " fill="#324516" transform="translate(550,210)"/>
<path d="M0 0 C0.33 0 0.66 0 1 0 C1 10.56 1 21.12 1 32 C0.67 32 0.34 32 0 32 C0 21.44 0 10.88 0 0 Z " fill="#000000" transform="translate(554,178)"/>
<path d="M0 0 C1.216875 0.350625 2.43375 0.70125 3.6875 1.0625 C7.161427 1.93251346 9.51977315 2.06340265 13 1 C13.763125 0.814375 14.52625 0.62875 15.3125 0.4375 C15.869375 0.293125 16.42625 0.14875 17 0 C15.24382798 2.44336977 13.87982422 3.83210694 10.87109375 4.40625 C6.80835759 4.56688537 4.71544096 4.55839295 1.4375 2 C0.7259375 1.01 0.7259375 1.01 0 0 Z " fill="#DCF79F" transform="translate(539,229)"/>
<path d="M0 0 C0.33 0 0.66 0 1 0 C1 8.91 1 17.82 1 27 C0.67 27 0.34 27 0 27 C0 18.09 0 9.18 0 0 Z " fill="#000000" transform="translate(454,226)"/>
<path d="M0 0 C0.33 0 0.66 0 1 0 C1 7.26 1 14.52 1 22 C0.67 22 0.34 22 0 22 C0 14.74 0 7.48 0 0 Z " fill="#000000" transform="translate(518,206)"/>
<path d="M0 0 C6.6 0 13.2 0 20 0 C20 0.33 20 0.66 20 1 C13.4 1 6.8 1 0 1 C0 0.67 0 0.34 0 0 Z " fill="#000000" transform="translate(186,164)"/>
<path d="M0 0 C0.33 0 0.66 0 1 0 C1 4.62 1 9.24 1 14 C0.67 14 0.34 14 0 14 C0 9.38 0 4.76 0 0 Z " fill="#000000" transform="translate(470,238)"/>
<path d="M0 0 C0.33 0 0.66 0 1 0 C1 4.62 1 9.24 1 14 C0.67 14 0.34 14 0 14 C0 9.38 0 4.76 0 0 Z " fill="#000000" transform="translate(490,214)"/>
<path d="M0 0 C0.33 0 0.66 0 1 0 C1 4.29 1 8.58 1 13 C0.67 13 0.34 13 0 13 C0 8.71 0 4.42 0 0 Z " fill="#000000" transform="translate(211,150)"/>
<path d="M0 0 C3.96 0 7.92 0 12 0 C12 0.33 12 0.66 12 1 C8.04 1 4.08 1 0 1 C0 0.67 0 0.34 0 0 Z " fill="#000000" transform="translate(257,136)"/>
<path d="M0 0 C0.33 0 0.66 0 1 0 C1 3.63 1 7.26 1 11 C0.67 11 0.34 11 0 11 C0 7.37 0 3.74 0 0 Z " fill="#000000" transform="translate(226,247)"/>
<path d="M0 0 C0.33 0 0.66 0 1 0 C1 3.3 1 6.6 1 10 C0.67 10 0.34 10 0 10 C0 6.7 0 3.4 0 0 Z " fill="#000000" transform="translate(125,139)"/>
<path d="M0 0 C0.33 0 0.66 0 1 0 C1 2.31 1 4.62 1 7 C0.67 7 0.34 7 0 7 C0 4.69 0 2.38 0 0 Z " fill="#000000" transform="translate(502,203)"/>
<path d="M0 0 C0.33 0 0.66 0 1 0 C1 2.31 1 4.62 1 7 C0.67 7 0.34 7 0 7 C0 4.69 0 2.38 0 0 Z " fill="#000000" transform="translate(542,200)"/>
<path d="M0 0 C0.33 0 0.66 0 1 0 C1 2.31 1 4.62 1 7 C0.67 7 0.34 7 0 7 C0 4.69 0 2.38 0 0 Z " fill="#000000" transform="translate(108,171)"/>
<path d="M0 0 C0.33 0 0.66 0 1 0 C1 2.31 1 4.62 1 7 C0.67 7 0.34 7 0 7 C0 4.69 0 2.38 0 0 Z " fill="#000000" transform="translate(133,151)"/>
<path d="M0 0 C1.98 0 3.96 0 6 0 C6 0.33 6 0.66 6 1 C4.02 1 2.04 1 0 1 C0 0.67 0 0.34 0 0 Z " fill="#000000" transform="translate(178,164)"/>
<path d="M0 0 C1.98 0 3.96 0 6 0 C6 0.33 6 0.66 6 1 C4.02 1 2.04 1 0 1 C0 0.67 0 0.34 0 0 Z " fill="#000000" transform="translate(83,136)"/>
<path d="M0 0 C0.33 0 0.66 0 1 0 C1 1.98 1 3.96 1 6 C0.67 6 0.34 6 0 6 C0 4.02 0 2.04 0 0 Z " fill="#000000" transform="translate(249,124)"/>
<path d="M0 0 C0.33 0 0.66 0 1 0 C1 1.98 1 3.96 1 6 C0.67 6 0.34 6 0 6 C0 4.02 0 2.04 0 0 Z " fill="#000000" transform="translate(211,124)"/>
<path d="M0 0 C0.33 0 0.66 0 1 0 C1 1.65 1 3.3 1 5 C0.67 5 0.34 5 0 5 C0 3.35 0 1.7 0 0 Z " fill="#000000" transform="translate(438,235)"/>
<path d="M0 0 C1.65 0 3.3 0 5 0 C5 0.33 5 0.66 5 1 C3.35 1 1.7 1 0 1 C0 0.67 0 0.34 0 0 Z " fill="#000000" transform="translate(388,197)"/>
<path d="M0 0 C1 4 1 4 1 4 Z " fill="#000000" transform="translate(149,215)"/>
<path d="M0 0 C3 1 3 1 3 1 Z " fill="#000000" transform="translate(446,255)"/>
<path d="" fill="#000000" transform="translate(0,0)"/>
<path d="M0 0 C3 1 3 1 3 1 Z " fill="#000000" transform="translate(88,194)"/>
<path d="" fill="#000000" transform="translate(0,0)"/>
<path d="" fill="#000000" transform="translate(0,0)"/>
<path d="" fill="#000000" transform="translate(0,0)"/>
<path d="M0 0 C2 1 2 1 2 1 Z " fill="#000000" transform="translate(478,253)"/>
<path d="" fill="#000000" transform="translate(0,0)"/>
<path d="M0 0 C2 1 2 1 2 1 Z " fill="#000000" transform="translate(261,241)"/>
<path d="" fill="#000000" transform="translate(0,0)"/>
<path d="M0 0 C2 1 2 1 2 1 Z " fill="#000000" transform="translate(88,224)"/>
<path d="" fill="#000000" transform="translate(0,0)"/>
<path d="" fill="#000000" transform="translate(0,0)"/>
<path d="M0 0 C2 1 2 1 2 1 Z " fill="#000000" transform="translate(460,189)"/>
<path d="" fill="#000000" transform="translate(0,0)"/>
<path d="M0 0 C2 1 2 1 2 1 Z " fill="#000000" transform="translate(186,168)"/>
<path d="M0 0 C2 1 2 1 2 1 Z " fill="#000000" transform="translate(348,147)"/>
<path d="" fill="#000000" transform="translate(0,0)"/>
<path d="" fill="#000000" transform="translate(0,0)"/>
<path d="" fill="#000000" transform="translate(0,0)"/>
<path d="" fill="#000000" transform="translate(0,0)"/>
<path d="" fill="#000000" transform="translate(0,0)"/>
<path d="" fill="#000000" transform="translate(0,0)"/>
<path d="" fill="#000000" transform="translate(0,0)"/>
<path d="" fill="#000000" transform="translate(0,0)"/>
<path d="" fill="#000000" transform="translate(0,0)"/>
<path d="" fill="#000000" transform="translate(0,0)"/>
<path d="" fill="#000000" transform="translate(0,0)"/>
<path d="" fill="#000000" transform="translate(0,0)"/>
<path d="" fill="#000000" transform="translate(0,0)"/>
<path d="" fill="#000000" transform="translate(0,0)"/>
<path d="" fill="#000000" transform="translate(0,0)"/>
<path d="" fill="#000000" transform="translate(0,0)"/>
<path d="" fill="#000000" transform="translate(0,0)"/>
<path d="" fill="#000000" transform="translate(0,0)"/>
<path d="" fill="#000000" transform="translate(0,0)"/>
<path d="" fill="#000000" transform="translate(0,0)"/>
<path d="" fill="#000000" transform="translate(0,0)"/>
<path d="" fill="#000000" transform="translate(0,0)"/>
<path d="" fill="#000000" transform="translate(0,0)"/>
<path d="" fill="#000000" transform="translate(0,0)"/>
<path d="" fill="#000000" transform="translate(0,0)"/>
<path d="" fill="#000000" transform="translate(0,0)"/>
<path d="" fill="#000000" transform="translate(0,0)"/>
<path d="" fill="#000000" transform="translate(0,0)"/>
<path d="" fill="#000000" transform="translate(0,0)"/>
<path d="" fill="#000000" transform="translate(0,0)"/>
<path d="" fill="#000000" transform="translate(0,0)"/>
<path d="" fill="#000000" transform="translate(0,0)"/>
<path d="" fill="#000000" transform="translate(0,0)"/>
<path d="" fill="#000000" transform="translate(0,0)"/>
<path d="" fill="#000000" transform="translate(0,0)"/>
<path d="" fill="#000000" transform="translate(0,0)"/>
<path d="" fill="#000000" transform="translate(0,0)"/>
<path d="" fill="#000000" transform="translate(0,0)"/>
<path d="" fill="#000000" transform="translate(0,0)"/>
<path d="" fill="#000000" transform="translate(0,0)"/>
<path d="" fill="#000000" transform="translate(0,0)"/>
<path d="" fill="#000000" transform="translate(0,0)"/>
<path d="" fill="#000000" transform="translate(0,0)"/>
<path d="" fill="#000000" transform="translate(0,0)"/>
<path d="" fill="#000000" transform="translate(0,0)"/>
<path d="" fill="#000000" transform="translate(0,0)"/>
<path d="" fill="#000000" transform="translate(0,0)"/>
<path d="" fill="#000000" transform="translate(0,0)"/>
<path d="" fill="#000000" transform="translate(0,0)"/>
<path d="" fill="#000000" transform="translate(0,0)"/>
<path d="" fill="#000000" transform="translate(0,0)"/>
<path d="" fill="#000000" transform="translate(0,0)"/>
<path d="" fill="#000000" transform="translate(0,0)"/>
<path d="" fill="#000000" transform="translate(0,0)"/>
<path d="" fill="#000000" transform="translate(0,0)"/>
<path d="" fill="#000000" transform="translate(0,0)"/>
<path d="" fill="#000000" transform="translate(0,0)"/>
<path d="" fill="#000000" transform="translate(0,0)"/>
<path d="" fill="#000000" transform="translate(0,0)"/>
<path d="" fill="#000000" transform="translate(0,0)"/>
<path d="" fill="#000000" transform="translate(0,0)"/>
<path d="" fill="#000000" transform="translate(0,0)"/>
<path d="" fill="#000000" transform="translate(0,0)"/>
<path d="" fill="#000000" transform="translate(0,0)"/>
<path d="" fill="#000000" transform="translate(0,0)"/>
<path d="" fill="#000000" transform="translate(0,0)"/>
<path d="" fill="#000000" transform="translate(0,0)"/>
<path d="" fill="#000000" transform="translate(0,0)"/>
<path d="" fill="#000000" transform="translate(0,0)"/>
<path d="" fill="#000000" transform="translate(0,0)"/>
<path d="" fill="#000000" transform="translate(0,0)"/>
<path d="" fill="#000000" transform="translate(0,0)"/>
<path d="" fill="#000000" transform="translate(0,0)"/>
<path d="" fill="#000000" transform="translate(0,0)"/>
<path d="" fill="#000000" transform="translate(0,0)"/>
<path d="" fill="#000000" transform="translate(0,0)"/>
<path d="" fill="#000000" transform="translate(0,0)"/>
<path d="" fill="#000000" transform="translate(0,0)"/>
<path d="" fill="#000000" transform="translate(0,0)"/>
<path d="" fill="#000000" transform="translate(0,0)"/>
<path d="" fill="#000000" transform="translate(0,0)"/>
<path d="" fill="#000000" transform="translate(0,0)"/>
<path d="" fill="#000000" transform="translate(0,0)"/>
<path d="" fill="#000000" transform="translate(0,0)"/>
<path d="" fill="#000000" transform="translate(0,0)"/>
<path d="" fill="#000000" transform="translate(0,0)"/>
</svg>
