<?xml version="1.0" encoding="UTF-8"?>
<svg version="1.1" xmlns="http://www.w3.org/2000/svg" width="640" height="360">
<path d="M0 0 C211.2 0 422.4 0 640 0 C640 118.8 640 237.6 640 360 C428.8 360 217.6 360 0 360 C0 241.2 0 122.4 0 0 Z " fill="#FEFEFE" transform="translate(0,0)"/>
<path d="M0 0 C8.87351144 1.80478199 15.42632945 9.07923038 21.3046875 15.46875 C21.4903125 13.798125 21.4903125 13.798125 21.6796875 12.09375 C22.3046875 8.46875 22.3046875 8.46875 24.3046875 6.46875 C30.66682094 5.57581899 34.00050384 6.9342783 39.13671875 10.69140625 C43.49893591 14.26763834 47.26024427 18.05734023 50.6171875 22.59375 C53.76499149 25.96116822 56.81960758 27.39411235 60.94140625 29.3359375 C67.51052253 32.4847701 70.25058645 37.09037742 73.3046875 43.46875 C74.74135348 47.77874795 74.2758269 52.08427447 74.08984375 56.57617188 C73.99894273 61.03445362 74.4656592 63.09694775 77.3046875 66.46875 C77.73828125 68.87109375 77.73828125 68.87109375 77.7421875 71.40625 C77.76152344 72.24027344 77.78085937 73.07429688 77.80078125 73.93359375 C77.12304773 77.39697214 75.77252829 78.96407577 73.3046875 81.46875 C70.359375 83.26953125 70.359375 83.26953125 67.1796875 84.78125 C66.12523437 85.29300781 65.07078125 85.80476563 63.984375 86.33203125 C61.3046875 87.46875 61.3046875 87.46875 59.3046875 87.46875 C59.21904541 88.09442871 59.13340332 88.72010742 59.04516602 89.36474609 C58.65615232 92.19159647 58.261738 95.01766732 57.8671875 97.84375 C57.73248047 98.82859375 57.59777344 99.8134375 57.45898438 100.828125 C57.32685547 101.76914063 57.19472656 102.71015625 57.05859375 103.6796875 C56.93814697 104.54899902 56.8177002 105.41831055 56.69360352 106.31396484 C56.3046875 108.46875 56.3046875 108.46875 55.3046875 110.46875 C56.03171875 110.50613281 56.75875 110.54351562 57.5078125 110.58203125 C74.34937128 111.68321009 91.88482289 116.57059716 103.9921875 128.96875 C112.02923498 138.82480592 114.93171601 152.06988101 117.76855469 164.20361328 C118.24212948 166.20444521 118.75849761 168.19504366 119.28125 170.18359375 C121.42523018 179.41072341 121.59157076 188.54108152 121.6171875 197.96875 C121.62274658 199.26981689 121.62830566 200.57088379 121.6340332 201.91137695 C121.56787787 210.65688546 121.22254413 218.92803651 116.3046875 226.46875 C105.61359496 236.77341751 87.66488329 240.56354372 73.16015625 240.578125 C72.21785156 240.54203125 71.27554688 240.5059375 70.3046875 240.46875 C70.19511719 239.17582031 70.08554687 237.88289062 69.97265625 236.55078125 C69.16013906 227.47767266 68.20943303 218.72988522 65.890625 209.90234375 C65.3046875 207.46875 65.3046875 207.46875 65.3046875 204.46875 C64.45648437 204.50097656 63.60828125 204.53320312 62.734375 204.56640625 C53.2402449 204.47250826 48.07960748 202.17445772 40.55859375 196.6953125 C35.7855321 193.4292319 31.31708737 191.00663924 25.3671875 191.28125 C24.59503906 191.30832031 23.82289063 191.33539063 23.02734375 191.36328125 C22.45886719 191.39808594 21.89039063 191.43289063 21.3046875 191.46875 C19.84581361 194.38649779 19.93645517 196.21603105 20.3046875 199.46875 C21.41849646 201.36401747 21.41849646 201.36401747 22.828125 203.17578125 C23.28880371 203.79557861 23.74948242 204.41537598 24.22412109 205.05395508 C24.58070801 205.5208374 24.93729492 205.98771973 25.3046875 206.46875 C24.14682739 206.50633423 24.14682739 206.50633423 22.96557617 206.54467773 C19.47427569 206.66059007 15.98324828 206.78333824 12.4921875 206.90625 C11.27724609 206.94556641 10.06230469 206.98488281 8.81054688 207.02539062 C7.06547852 207.08823242 7.06547852 207.08823242 5.28515625 207.15234375 C4.21160889 207.18900146 3.13806152 207.22565918 2.03198242 207.26342773 C-0.78842803 207.36416847 -0.78842803 207.36416847 -3.6953125 208.46875 C-3.80393083 211.17817393 -3.88289827 213.883189 -3.9453125 216.59375 C-3.97882813 217.35429687 -4.01234375 218.11484375 -4.046875 218.8984375 C-4.14196317 224.4135515 -2.94339869 226.89415533 0.3046875 231.46875 C0.7996875 234.93375 0.7996875 234.93375 1.3046875 238.46875 C-7.2753125 238.46875 -15.8553125 238.46875 -24.6953125 238.46875 C-24.2003125 234.50875 -24.2003125 234.50875 -23.6953125 230.46875 C-24.5409375 230.778125 -25.3865625 231.0875 -26.2578125 231.40625 C-41.88819471 236.23745905 -60.91139426 233.60858289 -76.6953125 230.46875 C-77.0253125 230.13875 -77.3553125 229.80875 -77.6953125 229.46875 C-77.60124006 227.73599638 -77.44243856 226.00670586 -77.2578125 224.28125 C-76.46133941 215.63382784 -75.98672792 207.0116729 -77.6953125 198.46875 C-67.4653125 198.46875 -57.2353125 198.46875 -46.6953125 198.46875 C-46.0353125 195.49875 -45.3753125 192.52875 -44.6953125 189.46875 C-44.24942884 187.91178311 -43.77887609 186.3611844 -43.26245117 184.82617188 C-42.99845016 184.03505005 -42.73444916 183.24392822 -42.46244812 182.42883301 C-42.04211052 181.19562317 -42.04211052 181.19562317 -41.61328125 179.9375 C-41.31722488 179.06154175 -41.02116852 178.1855835 -40.71614075 177.28308105 C-40.09245831 175.44357382 -39.46625822 173.60491843 -38.83764648 171.76708984 C-37.8864691 168.97946642 -36.94973924 166.18725914 -36.01367188 163.39453125 C-35.4019182 161.59605577 -34.78931583 159.79786871 -34.17578125 158 C-33.76455269 156.76679016 -33.76455269 156.76679016 -33.34501648 155.50866699 C-28.06697766 140.23912098 -20.1356897 133.44447995 -5.88085938 126.484375 C-2.02112328 124.69075322 1.9059883 123.08588141 5.8671875 121.53125 C6.61653564 121.23677979 7.36588379 120.94230957 8.13793945 120.63891602 C12.1816253 119.10667244 15.9861983 118.00770837 20.3046875 117.46875 C19.8096875 114.00375 19.8096875 114.00375 19.3046875 110.46875 C18.65242188 110.29859375 18.00015625 110.1284375 17.328125 109.953125 C9.32034633 107.732679 2.89348393 104.75875284 -1.6953125 97.46875 C-6.28906097 88.06075313 -5.09204198 78.3741733 -3.23046875 68.390625 C-3.05386719 67.42640625 -2.87726563 66.4621875 -2.6953125 65.46875 C-2.43363281 64.32535156 -2.17195313 63.18195313 -1.90234375 62.00390625 C-1.63945889 57.51502324 -2.80344688 55.83087381 -5.3203125 52.15625 C-6.06541876 51.02535517 -6.80758834 49.89252025 -7.546875 48.7578125 C-8.25585938 47.67242187 -8.96484375 46.58703125 -9.6953125 45.46875 C-15.58848843 35.27439354 -15.58848843 35.27439354 -14.6953125 29.46875 C-13.6953125 28.46875 -13.6953125 28.46875 -10.7578125 28.34375 C-7.6953125 28.46875 -7.6953125 28.46875 -5.6953125 29.46875 C-6.0046875 28.623125 -6.3140625 27.7775 -6.6328125 26.90625 C-8.93976357 19.44258478 -9.57742297 11.23972318 -8.6953125 3.46875 C-6.39279343 0.1645308 -3.98969135 -0.17537105 0 0 Z " fill="#41C899" transform="translate(474.6953125,94.53125)"/>
<path d="M0 0 C8.87351144 1.80478199 15.42632945 9.07923038 21.3046875 15.46875 C21.4903125 13.798125 21.4903125 13.798125 21.6796875 12.09375 C22.3046875 8.46875 22.3046875 8.46875 24.3046875 6.46875 C30.66682094 5.57581899 34.00050384 6.9342783 39.13671875 10.69140625 C43.49893591 14.26763834 47.26024427 18.05734023 50.6171875 22.59375 C53.76499149 25.96116822 56.81960758 27.39411235 60.94140625 29.3359375 C67.51052253 32.4847701 70.25058645 37.09037742 73.3046875 43.46875 C74.74135348 47.77874795 74.2758269 52.08427447 74.08984375 56.57617188 C73.99894273 61.03445362 74.4656592 63.09694775 77.3046875 66.46875 C77.73828125 68.87109375 77.73828125 68.87109375 77.7421875 71.40625 C77.76152344 72.24027344 77.78085937 73.07429688 77.80078125 73.93359375 C77.12304773 77.39697214 75.77252829 78.96407577 73.3046875 81.46875 C70.359375 83.26953125 70.359375 83.26953125 67.1796875 84.78125 C66.12523437 85.29300781 65.07078125 85.80476563 63.984375 86.33203125 C61.3046875 87.46875 61.3046875 87.46875 59.3046875 87.46875 C59.22428223 88.07871826 59.14387695 88.68868652 59.06103516 89.31713867 C58.69063463 92.09778458 58.31025921 94.87697868 57.9296875 97.65625 C57.80335938 98.61595703 57.67703125 99.57566406 57.546875 100.56445312 C57.35351562 101.96147461 57.35351562 101.96147461 57.15625 103.38671875 C57.04104004 104.24031982 56.92583008 105.0939209 56.80712891 105.97338867 C54.80323793 115.92565768 46.78658503 121.52771777 38.7578125 126.93359375 C30.68364076 131.98637957 22.99917024 135.34635581 13.3046875 134.46875 C12.3046875 133.46875 12.3046875 133.46875 11.8046875 130.96875 C12.36891433 127.01916219 13.2685485 126.04917005 15.8046875 123.09375 C18.45694201 119.9505349 19.79378546 118.07094274 19.7421875 113.90625 C19.5978125 112.771875 19.4534375 111.6375 19.3046875 110.46875 C18.65242188 110.29859375 18.00015625 110.1284375 17.328125 109.953125 C9.32034633 107.732679 2.89348393 104.75875284 -1.6953125 97.46875 C-6.28906097 88.06075313 -5.09204198 78.3741733 -3.23046875 68.390625 C-3.05386719 67.42640625 -2.87726563 66.4621875 -2.6953125 65.46875 C-2.43363281 64.32535156 -2.17195313 63.18195313 -1.90234375 62.00390625 C-1.63945889 57.51502324 -2.80344688 55.83087381 -5.3203125 52.15625 C-6.06541876 51.02535517 -6.80758834 49.89252025 -7.546875 48.7578125 C-8.25585938 47.67242187 -8.96484375 46.58703125 -9.6953125 45.46875 C-15.58848843 35.27439354 -15.58848843 35.27439354 -14.6953125 29.46875 C-13.6953125 28.46875 -13.6953125 28.46875 -10.7578125 28.34375 C-7.6953125 28.46875 -7.6953125 28.46875 -5.6953125 29.46875 C-6.159375 28.2003125 -6.159375 28.2003125 -6.6328125 26.90625 C-8.93976357 19.44258478 -9.57742297 11.23972318 -8.6953125 3.46875 C-6.39279343 0.1645308 -3.98969135 -0.17537105 0 0 Z " fill="#F4B198" transform="translate(474.6953125,94.53125)"/>
<path d="M0 0 C2.31677426 3.4027622 2.76038724 5.864083 3 9.9375 C6.47520468 11.34772799 9.96176987 12.69328721 13.5 13.9375 C14.4178125 14.2675 15.335625 14.5975 16.28125 14.9375 C26.33301934 17.6404968 36.38011539 18.29827894 46.75 18.25 C48.58099243 18.24480347 48.58099243 18.24480347 50.44897461 18.23950195 C59.93395372 18.12584547 68.79689637 17.17609278 78 14.9375 C78.9590625 14.7209375 79.918125 14.504375 80.90625 14.28125 C87.20134463 12.72599133 93.22144335 10.44239632 99.25610352 8.09448242 C103.45849668 6.46569279 107.64859309 5.11553633 112 3.9375 C113 6.9375 114 9.9375 115 12.9375 C111.85595863 14.21279753 108.70944782 15.48189329 105.5625 16.75 C104.68400391 17.10642578 103.80550781 17.46285156 102.90039062 17.83007812 C70.77249584 30.75236791 36.92153702 33.21670486 4 21.9375 C4.0721875 22.78570312 4.144375 23.63390625 4.21875 24.5078125 C6.31955304 51.05962866 6.31955304 51.05962866 1 57.9375 C-5.08743597 64.20978299 -11.36779411 65.07931901 -19.8125 65.75 C-22.04837648 65.96275862 -24.28406463 66.17750858 -26.51953125 66.39453125 C-27.50026611 66.47678955 -28.48100098 66.55904785 -29.49145508 66.64379883 C-32.12412565 66.86567309 -32.12412565 66.86567309 -35 67.9375 C-38.3201792 68.24555786 -41.6410341 68.44639404 -44.96875 68.65625 C-48.0434509 68.82574496 -48.0434509 68.82574496 -51 69.9375 C-56.68899607 70.50098152 -61.18687315 70.28576216 -66 66.9375 C-74.4776797 59.1708515 -76.21632299 51.06571353 -77 39.9375 C-69.08 38.9475 -69.08 38.9475 -61 37.9375 C-60.92125435 31.19094095 -60.92125435 31.19094095 -62 24.9375 C-62.185625 24.174375 -62.37125 23.41125 -62.5625 22.625 C-62.706875 22.068125 -62.85125 21.51125 -63 20.9375 C-63.66 21.2675 -64.32 21.5975 -65 21.9375 C-65.54040236 23.89224322 -65.54040236 23.89224322 -65.875 26.1875 C-66.74650055 30.35872782 -67.62409307 33.10903743 -71 35.9375 C-74.5625 36.25 -74.5625 36.25 -78 35.9375 C-78.99 35.9375 -79.98 35.9375 -81 35.9375 C-83.87895184 51.18052181 -85.08788246 65.93890387 -77 79.8125 C-72.81066937 85.17064074 -64.62394702 88.7920054 -58 89.9375 C-37.4846001 91.67399092 -17.0772267 86.02750379 2 78.9375 C2.474375 80.05125 2.94875 81.165 3.4375 82.3125 C4.25306463 84.20460994 5.07856355 86.09462709 6 87.9375 C-17.43247262 96.62392045 -45.52557317 106.67938716 -70.375 97.26171875 C-80.78255578 92.01147856 -87.0707884 84.15614589 -91.23828125 73.4296875 C-95.76583105 58.61647328 -94.05073123 37.39147079 -87.8125 23.25 C-87.214375 22.156875 -86.61625 21.06375 -86 19.9375 C-83.125 19.8125 -83.125 19.8125 -80 19.9375 C-79.34 20.5975 -78.68 21.2575 -78 21.9375 C-78.34761621 25.69175503 -78.9834624 29.30700856 -80 32.9375 C-78.35 32.2775 -76.7 31.6175 -75 30.9375 C-73.88400991 24.86673551 -73.88400991 24.86673551 -75.125 18.9375 C-77.3699282 16.54290992 -78.77510528 16.19897795 -82 15.9375 C-80.74488652 10.91704606 -79.43335691 8.64960468 -75 5.9375 C-71.60343598 5.20498668 -68.21318861 4.96890894 -64.75 4.75 C-62.93202807 4.61415992 -61.11429866 4.47501973 -59.296875 4.33203125 C-58.09562988 4.25239136 -58.09562988 4.25239136 -56.87011719 4.17114258 C-54.98822479 4.13038857 -54.98822479 4.13038857 -54 2.9375 C-51.92650033 2.66084428 -49.84486139 2.44484076 -47.76171875 2.25390625 C-46.46556641 2.13080078 -45.16941406 2.00769531 -43.83398438 1.88085938 C-42.45186928 1.75340255 -41.06970739 1.62645209 -39.6875 1.5 C-31.25283362 0.72820713 -22.89382652 -0.12024299 -14.55566406 -1.63720703 C-4.75393651 -3.26833135 -4.75393651 -3.26833135 0 0 Z " fill="#F7E1E2" transform="translate(155,251.0625)"/>
<path d="M0 0 C1.87580498 -0.01062721 1.87580498 -0.01062721 3.789505 -0.02146912 C5.17279089 -0.01917535 6.55607643 -0.01666566 7.93936157 -0.01396179 C9.39818076 -0.01830968 10.85699765 -0.02349309 12.31581116 -0.02944946 C16.27662036 -0.04284351 20.23733416 -0.04341761 24.1981616 -0.04088616 C27.50577647 -0.03981657 30.81337203 -0.04469961 34.12098277 -0.04949158 C41.92552867 -0.06058851 49.73002644 -0.06102336 57.53457642 -0.05497742 C65.58256023 -0.04893867 73.63036917 -0.06124565 81.67832315 -0.08254749 C88.59055361 -0.10016965 95.50272844 -0.10616382 102.41498053 -0.10290974 C106.54217827 -0.10109747 110.6692513 -0.10372729 114.79642868 -0.11762428 C118.6788622 -0.13020779 122.56102345 -0.12825372 126.44345284 -0.11521339 C127.86643758 -0.11284906 129.28944151 -0.11557722 130.71240425 -0.12383652 C132.65874888 -0.13431689 134.60517117 -0.12439349 136.55151367 -0.11352539 C137.63956488 -0.11369313 138.72761608 -0.11386087 139.84863853 -0.1140337 C144.05670788 0.40228511 147.43564131 1.89117153 150.54727173 4.79585266 C155.52610755 11.30663797 155.08579125 15.70759489 155.09024048 23.76069641 C155.10248657 24.92729797 155.11473267 26.09389954 155.12734985 27.29585266 C155.12928345 28.4083136 155.13121704 29.52077454 155.13320923 30.66694641 C155.13731812 31.69110657 155.141427 32.71526672 155.1456604 33.77046204 C154.90274048 36.26069641 154.90274048 36.26069641 152.90274048 38.26069641 C148.58486116 38.26069641 146.59039701 37.06600917 143.56680298 34.24154663 C137.83714725 29.87157909 131.8482454 30.46025752 124.90274048 30.5670929 C123.49583699 30.56710837 122.08893127 30.56440976 120.68203735 30.55921936 C117.66543328 30.55360941 114.64969197 30.56651356 111.63320923 30.59394646 C106.85830234 30.63674115 102.08404329 30.63464313 97.30899048 30.62619019 C88.03440699 30.61570157 78.76023562 30.64833661 69.48574829 30.68748474 C57.68074401 30.7364398 45.87594501 30.77241036 34.0708313 30.75614983 C29.32924321 30.75119158 24.58861642 30.7710554 19.84719849 30.81048763 C16.89241602 30.83018912 13.93789298 30.82921654 10.98306274 30.82287598 C8.97117469 30.82483864 6.95935895 30.85178434 4.94766235 30.87960815 C-2.28154926 30.84011248 -7.62518709 30.29308516 -13.09725952 25.26069641 C-16.23335684 21.04656564 -16.73284356 16.87344484 -16.58554077 11.73335266 C-15.75935903 7.54956831 -13.35807735 4.89328328 -10.09725952 2.26069641 C-6.68612594 0.1459583 -3.97934928 0.0075132 0 0 Z " fill="#4766E3" transform="translate(277.0972595214844,18.739303588867188)"/>
<path d="M0 0 C1.95243874 -0.01902626 1.95243874 -0.01902626 3.94432068 -0.03843689 C5.3574947 -0.03638525 6.77066764 -0.03339706 8.18383789 -0.02954102 C9.64205671 -0.03410538 11.10027338 -0.03941171 12.55848694 -0.04542542 C15.61069492 -0.0543468 18.66264112 -0.05194484 21.71484375 -0.04199219 C25.61666144 -0.03050579 29.51757365 -0.05071269 33.41927242 -0.07990932 C36.4297098 -0.09830011 39.43993136 -0.09797319 42.45041084 -0.0922718 C43.88845655 -0.09211893 45.32651719 -0.0981355 46.7645092 -0.11056328 C48.77915311 -0.12552227 50.79394638 -0.11214094 52.80859375 -0.09765625 C53.95267197 -0.09749008 55.09675018 -0.09732391 56.27549744 -0.09715271 C61.07311432 0.65581243 64.24576315 2.92503023 67.3125 6.63305664 C68.85533276 10.32973213 68.95561044 13.79584846 68.97290039 17.73999023 C68.98288559 18.53756744 68.99287079 19.33514465 69.00315857 20.15689087 C69.0183031 21.83948603 69.0253855 23.52217074 69.02490234 25.20483398 C69.03145804 27.76495468 69.08595142 30.32118121 69.14282227 32.88061523 C69.15162703 34.52122707 69.15757945 36.1618572 69.16040039 37.80249023 C69.18195694 38.5600058 69.20351349 39.31752136 69.22572327 40.09799194 C69.15846046 45.37487465 67.70362813 48.10928083 64.14781189 51.97988892 C60.20188848 55.32726915 57.07921573 55.66101196 51.94384766 55.69458008 C50.97478485 55.70465591 50.97478485 55.70465591 49.98614502 55.7149353 C47.85665131 55.73388842 45.72747313 55.73783787 43.59790039 55.73999023 C42.11343762 55.74641939 40.62897611 55.75314784 39.14451599 55.76016235 C36.03511619 55.77212789 32.92582744 55.77584387 29.81640625 55.7746582 C25.8371594 55.7744549 21.85862584 55.80177104 17.87954807 55.83620262 C14.81427251 55.85846671 11.74916886 55.86249593 8.68382072 55.86143875 C7.21702551 55.86379492 5.75022558 55.87261947 4.28351021 55.88810349 C2.22968012 55.90775799 0.17739143 55.90193014 -1.87646484 55.88989258 C-3.04354477 55.89274261 -4.21062469 55.89559265 -5.41307068 55.89852905 C-9.75273792 55.21029708 -12.22879889 53.15353949 -14.82250977 49.66894531 C-15.90535564 46.20734602 -15.85651372 42.75873405 -15.86694336 39.16577148 C-15.87360016 38.36677933 -15.88025696 37.56778717 -15.88711548 36.74458313 C-15.89722569 35.05598242 -15.901933 33.36734188 -15.90161133 31.67871094 C-15.90597356 29.11056672 -15.94227746 26.54415746 -15.98022461 23.97631836 C-15.98609555 22.33114191 -15.99006309 20.68595734 -15.99194336 19.04077148 C-16.00631439 18.28011887 -16.02068542 17.51946625 -16.03549194 16.73576355 C-15.98855335 11.18752247 -14.80901798 7.92227064 -11.53100586 3.40405273 C-7.64392597 0.49644701 -4.80681 0.02271627 0 0 Z " fill="#FFB705" transform="translate(492.531005859375,21.595947265625)"/>
<path d="M0 0 C1.08915207 -0.01279495 2.17830414 -0.0255899 3.30046082 -0.03877258 C5.07803772 -0.03673325 5.07803772 -0.03673325 6.89152527 -0.03465271 C8.77529121 -0.04976646 8.77529121 -0.04976646 10.69711304 -0.06518555 C14.13530504 -0.09163907 17.57327292 -0.09871707 21.01155686 -0.10063291 C23.16232701 -0.10276848 25.31304056 -0.10917911 27.46379662 -0.11712456 C34.97489907 -0.14486441 42.48584203 -0.15713202 49.99699402 -0.1547699 C56.98579173 -0.15296871 63.97389389 -0.18460493 70.96251565 -0.23200089 C76.97291591 -0.2713022 82.98308955 -0.28731846 88.99361724 -0.28540367 C92.57891829 -0.28464077 96.16360113 -0.29307769 99.74877357 -0.32493782 C103.75126352 -0.35953649 107.75220776 -0.3456969 111.75480652 -0.32762146 C113.52327438 -0.35290924 113.52327438 -0.35290924 115.32746887 -0.37870789 C121.87527871 -0.30364113 125.935527 0.48229442 131.02062511 4.72363377 C134.26086172 8.35546144 134.91246845 11.4949889 134.76725769 16.37770081 C134.20554114 20.92409411 132.29147611 23.70245339 128.95475769 26.71363831 C125.51288231 29.09647511 123.82197742 29.5238266 119.68121338 29.50552368 C118.1485231 29.50286499 118.1485231 29.50286499 116.58486938 29.50015259 C115.45920059 29.49333969 114.3335318 29.48652679 113.17375183 29.47950745 C110.72234135 29.47338936 108.27093039 29.46746282 105.81951904 29.46170044 C104.51384035 29.45702822 103.20816166 29.452356 101.86291695 29.44754219 C97.78090864 29.43436225 93.69899477 29.43609791 89.61697388 29.44177246 C88.92760162 29.44269254 88.23822936 29.44361262 87.52796704 29.44456059 C85.40395433 29.44753252 83.27994197 29.45069762 81.15592957 29.45387268 C72.36661122 29.46664558 63.57773736 29.46880209 54.78849792 29.42530823 C48.3794267 29.39369838 41.97103477 29.39061351 35.56194395 29.42006773 C32.17355751 29.43455373 28.78652868 29.43499687 25.3982563 29.40066719 C21.60619758 29.36912079 17.81732345 29.38752332 14.02531433 29.41700745 C12.91786362 29.39602493 11.8104129 29.37504242 10.66940308 29.35342407 C2.90169848 29.48669443 -1.19386447 31.66885695 -7.02794743 36.78339291 C-9.48274231 38.40113831 -9.48274231 38.40113831 -12.23466396 38.20588779 C-14.48274231 37.40113831 -14.48274231 37.40113831 -15.48274231 36.40113831 C-15.82190219 32.38917744 -15.80803002 28.36307397 -15.85774231 24.33863831 C-15.89512512 23.21779846 -15.93250793 22.09695862 -15.97102356 20.94215393 C-16.03726837 14.67465842 -15.62051113 10.2269755 -12.05158997 4.98927307 C-8.4348404 1.32805989 -5.09141204 0.02712534 0 0 Z " fill="#4464E3" transform="translate(205.4827423095703,192.59886169433594)"/>
<path d="M0 0 C1.17127441 -0.00700928 2.34254883 -0.01401855 3.54931641 -0.02124023 C7.42187189 -0.03884801 11.29369681 -0.0271859 15.16625977 -0.01367188 C17.85759573 -0.01456261 20.54891867 -0.02024197 23.24024963 -0.02526855 C28.88176384 -0.03254079 34.52306842 -0.02296966 40.16455078 -0.00390625 C46.67838974 0.0178514 53.19172765 0.01081793 59.70555443 -0.01121187 C65.30574615 -0.02939079 70.90578743 -0.0319118 76.50599915 -0.0214572 C79.84743704 -0.01523438 83.1884512 -0.01593234 86.52990532 -0.02760315 C90.25726025 -0.03776365 93.98365412 -0.02227192 97.7109375 0 C99.36395622 -0.01214539 99.36395622 -0.01214539 101.05036926 -0.02453613 C107.17005412 0.04319361 110.76264211 0.43112534 115.42016602 4.51757812 C120.03769718 9.27317501 119.89066856 13.88945046 119.86938477 20.18945312 C119.84489258 21.37023437 119.82040039 22.55101562 119.79516602 23.76757812 C119.79323242 25.56195313 119.79323242 25.56195313 119.79125977 27.39257812 C119.70121959 36.23652455 119.70121959 36.23652455 117.42016602 38.51757812 C113.25800462 38.24434199 111.30076234 36.79380036 108.31863403 34.00552368 C102.99590948 29.71526805 98.70677028 29.55623776 92.04467773 29.71044922 C90.9427005 29.70770493 89.84072327 29.70496063 88.70535278 29.70213318 C86.32693144 29.70088081 83.94845747 29.71572916 81.57021713 29.74509811 C77.80324973 29.79159082 74.03825271 29.79586327 70.27102661 29.78970337 C62.95725214 29.78538229 55.64426065 29.82809695 48.33073425 29.8789444 C38.38130635 29.94558318 28.43228106 29.97797336 18.4826088 29.97157669 C14.77575607 29.97842163 11.07011395 30.01667831 7.36349487 30.05697632 C5.08795381 30.06129433 2.81240985 30.06434287 0.53686523 30.06591797 C-1.00315155 30.0953524 -1.00315155 30.0953524 -2.57427979 30.12538147 C-9.24326887 30.08930003 -12.59464711 29.01760232 -17.57983398 24.51757812 C-20.64922927 20.06200432 -21.53159121 15.80511826 -20.57983398 10.51757812 C-15.59536917 0.91786811 -10.06629528 -0.07382547 0 0 Z " fill="#4463E3" transform="translate(310.579833984375,137.482421875)"/>
<path d="M0 0 C1.875 0.625 1.875 0.625 4 2 C6.38992166 6.8993394 6.21277961 11.68050971 6 17 C6.969375 17.04125 7.93875 17.0825 8.9375 17.125 C14.94277133 18.02639975 19.71581113 21.41372583 23.68359375 25.90625 C27.9709561 32.41623928 27.96200716 39.44646231 27 47 C25.41051424 52.41101535 22.40341307 56.47726954 18 60 C12.00133078 63.26663243 6.23755117 64.76788167 -0.5 65.5625 C-1.38856689 65.67762939 -2.27713379 65.79275879 -3.19262695 65.91137695 C-5.10886986 66.156803 -7.02599189 66.39544291 -8.94384766 66.62792969 C-12.15629215 67.01902774 -15.36508371 67.43422892 -18.57421875 67.8515625 C-20.7784883 68.13145182 -22.98291326 68.41012016 -25.1875 68.6875 C-26.21359375 68.81906494 -27.2396875 68.95062988 -28.296875 69.08618164 C-47.64700862 71.43084011 -47.64700862 71.43084011 -55 66 C-61.29410398 60.28727912 -64.48815135 54.53351661 -65.4375 46.125 C-65.08569974 38.96234678 -62.39224312 32.85353246 -57.125 28 C-53.97458004 25.34701477 -50.93857262 24.16698448 -47 23 C-47.2831556 20.91549283 -47.57685669 18.83241633 -47.875 16.75 C-48.03742188 15.58984375 -48.19984375 14.4296875 -48.3671875 13.234375 C-48.91820431 10.41806687 -49.55796482 8.44782443 -51 6 C-48 7 -48 7 -47.05078125 8.85546875 C-46.80714844 9.62503906 -46.56351563 10.39460937 -46.3125 11.1875 C-46.06113281 11.94417969 -45.80976562 12.70085937 -45.55078125 13.48046875 C-44.91791249 16.37550669 -44.96420519 19.04426227 -45 22 C-24.47839498 19.86688172 -24.47839498 19.86688172 -4.00390625 17.33203125 C-1.30263735 17.03345146 1.28586891 16.93404915 4 17 C3.67373505 10.67721029 3.38495108 5.44535609 0 0 Z " fill="#272751" transform="translate(137,164)"/>
<path d="M0 0 C1.3583345 -0.01279495 1.3583345 -0.01279495 2.74411011 -0.02584839 C3.7301825 -0.02494202 4.71625488 -0.02403564 5.73220825 -0.02310181 C6.77654022 -0.02981903 7.82087219 -0.03653625 8.89685059 -0.04345703 C12.3525975 -0.06247042 15.80815055 -0.06636291 19.26394653 -0.06851196 C21.66524333 -0.07493745 24.06653934 -0.08166562 26.46783447 -0.08868408 C31.50324316 -0.10066514 36.53858319 -0.10436404 41.57400513 -0.10317993 C48.0259733 -0.10297668 54.47750132 -0.13028261 60.92936516 -0.16472435 C65.88962831 -0.18696253 70.84978502 -0.19101841 75.81009293 -0.18996048 C78.18873741 -0.19232093 80.56738463 -0.20116934 82.94598007 -0.21662521 C86.27347381 -0.23622248 89.60001159 -0.23047108 92.92752075 -0.21841431 C93.90954468 -0.22965332 94.8915686 -0.24089233 95.90335083 -0.25247192 C101.60354982 -0.19999272 104.9671808 0.40435606 109.45925903 4.26742554 C112.7201555 8.04320039 114.19758831 11.08885715 113.90457153 16.17758179 C113.06699273 20.10832441 111.310581 23.44117014 108.45925903 26.26742554 C102.71854477 29.31438654 98.07348994 29.67354015 91.64358521 29.57284546 C90.20311073 29.56885742 90.20311073 29.56885742 88.73353577 29.56478882 C86.65739666 29.55785703 84.58127108 29.54446718 82.50520897 29.52528954 C79.21261937 29.49756072 75.92073476 29.49275929 72.6280365 29.49479675 C63.26968786 29.49832098 53.91181583 29.47534889 44.55374146 29.40145874 C38.82006921 29.35781476 33.08745064 29.35324494 27.35366249 29.37304115 C25.17645511 29.37294393 22.99919458 29.35816943 20.82219505 29.32808495 C7.18831165 28.65975571 7.18831165 28.65975571 -4.64108276 34.38583374 C-5.30722092 35.13186356 -5.97335907 35.87789337 -6.65968323 36.64653015 C-8.54074097 38.26742554 -8.54074097 38.26742554 -11.2219696 38.07252502 C-13.54074097 37.26742554 -13.54074097 37.26742554 -14.54074097 36.26742554 C-14.9082285 32.08924272 -14.91270336 27.89707243 -14.97824097 23.70492554 C-15.02400269 22.53639038 -15.0697644 21.36785522 -15.11691284 20.16390991 C-15.20529149 13.35106863 -14.6975923 9.0169575 -10.22848511 3.74032593 C-7.00809089 0.9298763 -4.24448695 0.01812372 0 0 Z " fill="#4162E3" transform="translate(202.54074096679688,80.73257446289063)"/>
<path d="M0 0 C1.21128067 -0.00930542 2.42256134 -0.01861084 3.67054749 -0.02819824 C5.62691383 -0.00360535 5.62691383 -0.00360535 7.62280273 0.02148438 C8.9775329 0.02319599 10.33226637 0.02312927 11.68699646 0.0213623 C14.52261145 0.02301415 17.35743449 0.04168693 20.19287109 0.07324219 C23.82703839 0.11295875 27.4601707 0.11728262 31.09451389 0.10977936 C33.89041117 0.10670998 36.6860758 0.11882813 39.48191643 0.13591003 C41.47331772 0.14635594 43.46476335 0.14678766 45.45619202 0.14709473 C46.66432053 0.16300659 47.87244904 0.17891846 49.1171875 0.1953125 C50.18211929 0.20373169 51.24705109 0.21215088 52.34425354 0.2208252 C54.99389648 0.61523437 54.99389648 0.61523437 56.83692932 1.85450745 C58.31960385 4.11091112 58.37420594 5.51401292 58.38208008 8.20678711 C58.39153656 9.13462509 58.40099304 10.06246307 58.41073608 11.01841736 C58.40466339 12.01845291 58.3985907 13.01848846 58.39233398 14.04882812 C58.39520416 15.0783107 58.39807434 16.10779327 58.40103149 17.16847229 C58.40307367 19.34645131 58.39753314 21.52444861 58.38500977 23.70239258 C58.3689751 27.03638787 58.38484536 30.3691678 58.40405273 33.703125 C58.40207001 35.81836205 58.39822573 37.93359835 58.39233398 40.04882812 C58.39840668 41.04683945 58.40447937 42.04485077 58.41073608 43.07310486 C58.39655136 44.46959007 58.39655136 44.46959007 58.38208008 45.89428711 C58.3796933 46.711306 58.37730652 47.52832489 58.37484741 48.37010193 C57.88149536 51.27766987 57.14296904 52.58830764 54.99389648 54.61523438 C52.34425354 55.12989807 52.34425354 55.12989807 49.1171875 55.14868164 C47.90905899 55.16451797 46.70093048 55.18035431 45.45619202 55.19667053 C43.49678932 55.18923073 43.49678932 55.18923073 41.49780273 55.18164062 C40.14403353 55.18687558 38.79026797 55.1931516 37.43650818 55.20042419 C34.59926187 55.21083364 31.76251689 55.20626065 28.92529297 55.19165039 C25.29201639 55.17447106 21.66032252 55.19794087 18.02722263 55.23313999 C15.23127291 55.2551201 12.43570146 55.2536712 9.63969231 55.24537468 C7.6499354 55.24415723 5.66020197 55.26409131 3.67054749 55.28431702 C2.45926682 55.27178391 1.24798615 55.25925079 0 55.24633789 C-1.06572739 55.24537613 -2.13145477 55.24441437 -3.22947693 55.24342346 C-6.00610352 54.61523438 -6.00610352 54.61523438 -8.34913635 52.35874939 C-10.026325 49.58175276 -10.51027766 48.26989294 -10.52368164 45.08789062 C-10.53629028 44.22349365 -10.54889893 43.35909668 -10.56188965 42.46850586 C-10.55379272 41.54755127 -10.5456958 40.62659668 -10.53735352 39.67773438 C-10.54309387 38.24119507 -10.54309387 38.24119507 -10.5489502 36.77563477 C-10.55166672 34.75503485 -10.54432374 32.73439962 -10.52758789 30.71386719 C-10.50617471 27.62550262 -10.52739852 24.5394643 -10.55297852 21.45117188 C-10.55033519 19.48502092 -10.54521012 17.51887141 -10.53735352 15.55273438 C-10.54545044 14.63177979 -10.55354736 13.7108252 -10.56188965 12.76196289 C-10.54928101 11.89756592 -10.53667236 11.03316895 -10.52368164 10.14257812 C-10.52049927 9.38710693 -10.51731689 8.63163574 -10.51403809 7.85327148 C-9.1502975 1.84442266 -5.8372037 -0.0112526 0 0 Z " fill="#32C97F" transform="translate(167.006103515625,8.384765625)"/>
<path d="M0 0 C8.87351144 1.80478199 15.42632945 9.07923038 21.3046875 15.46875 C21.4903125 13.798125 21.4903125 13.798125 21.6796875 12.09375 C22.3046875 8.46875 22.3046875 8.46875 24.3046875 6.46875 C30.66682094 5.57581899 34.00050384 6.9342783 39.13671875 10.69140625 C43.49893591 14.26763834 47.26024427 18.05734023 50.6171875 22.59375 C53.76499149 25.96116822 56.81960758 27.39411235 60.94140625 29.3359375 C67.51052253 32.4847701 70.25058645 37.09037742 73.3046875 43.46875 C74.27738746 46.38684988 74.43892135 48.30581289 74.4296875 51.34375 C74.43355469 52.60832031 74.43355469 52.60832031 74.4375 53.8984375 C74.30258613 56.50941769 73.87984421 58.92162742 73.3046875 61.46875 C72.62921875 61.57832031 71.95375 61.68789062 71.2578125 61.80078125 C70.36578125 61.95933594 69.47375 62.11789063 68.5546875 62.28125 C67.67296875 62.43207031 66.79125 62.58289063 65.8828125 62.73828125 C63.09768698 63.52740015 61.58545948 64.74046315 59.3046875 66.46875 C54.77697221 66.5510721 52.8965336 65.99483542 49.4921875 62.96875 C46.70887298 59.21493765 45.98137725 55.01368113 45.3046875 50.46875 C43.78598052 49.982886 42.26458051 49.50543799 40.7421875 49.03125 C39.89527344 48.76441406 39.04835938 48.49757812 38.17578125 48.22265625 C29.25311022 45.87969637 16.22062534 44.18379922 7.4921875 48.09375 C4.08003851 50.63613552 2.74752174 52.50095585 1.3046875 56.46875 C1.8615625 55.80875 2.4184375 55.14875 2.9921875 54.46875 C5.3046875 52.46875 5.3046875 52.46875 8.0546875 52.21875 C8.7971875 52.30125 9.5396875 52.38375 10.3046875 52.46875 C10.9646875 53.78875 11.6246875 55.10875 12.3046875 56.46875 C10.974375 56.283125 10.974375 56.283125 9.6171875 56.09375 C6.38671851 56.12791175 6.38671851 56.12791175 4.86328125 57.8046875 C3.65447199 59.34185987 2.47800874 60.90432168 1.3046875 62.46875 C0.6446875 62.46875 -0.0153125 62.46875 -0.6953125 62.46875 C-1.08460938 61.48648438 -1.47390625 60.50421875 -1.875 59.4921875 C-4.08612019 54.32424619 -7.15403957 49.67104468 -10.19921875 44.9609375 C-13.28799554 39.93823815 -14.8655466 35.43685993 -14.6953125 29.46875 C-13.6953125 28.46875 -13.6953125 28.46875 -10.7578125 28.34375 C-7.6953125 28.46875 -7.6953125 28.46875 -5.6953125 29.46875 C-6.159375 28.2003125 -6.159375 28.2003125 -6.6328125 26.90625 C-8.93976357 19.44258478 -9.57742297 11.23972318 -8.6953125 3.46875 C-6.39279343 0.1645308 -3.98969135 -0.17537105 0 0 Z " fill="#151314" transform="translate(474.6953125,94.53125)"/>
<path d="M0 0 C0.84122406 -0.0127597 1.68244812 -0.02551941 2.54916382 -0.03866577 C3.45026886 -0.04089142 4.3513739 -0.04311707 5.27978516 -0.04541016 C6.21432526 -0.05206696 7.14886536 -0.05872375 8.11172485 -0.06558228 C10.08699579 -0.07569813 12.06230084 -0.08039963 14.03759766 -0.08007812 C17.05119494 -0.08444706 20.0633223 -0.1207661 23.07666016 -0.15869141 C24.99853016 -0.16456072 26.92040711 -0.16852935 28.84228516 -0.17041016 C30.18787003 -0.19196671 30.18787003 -0.19196671 31.56063843 -0.21395874 C37.09478282 -0.17377952 40.33766461 0.54297233 44.69384766 4.29052734 C46.70305922 7.30434469 46.94911954 7.91873151 47.00024414 11.29956055 C47.01623154 12.10081863 47.03221893 12.90207672 47.0486908 13.72761536 C47.0540535 14.59013412 47.0594162 15.45265289 47.06494141 16.34130859 C47.07848412 17.67865303 47.07848412 17.67865303 47.09230042 19.04301453 C47.10680885 20.93009074 47.11569113 22.81721733 47.11938477 24.7043457 C47.13126191 27.58225078 47.18042353 30.45799798 47.23095703 33.33544922 C47.24042377 35.17072523 47.24765761 37.0060144 47.25244141 38.84130859 C47.27197372 39.69775467 47.29150604 40.55420074 47.31163025 41.43659973 C47.2800187 45.65329776 47.01536391 48.44930431 44.34643555 51.81860352 C41.02975531 54.90938929 38.77498624 55.40922323 34.40942383 55.48339844 C33.54810349 55.49946136 32.68678314 55.51552429 31.79936218 55.53207397 C27.86568122 55.57667716 23.93216584 55.61758164 19.99829102 55.640625 C17.92558565 55.65718456 15.85293739 55.68447451 13.78051758 55.72265625 C10.78648364 55.77750514 7.7937855 55.79931045 4.79931641 55.81396484 C3.87724899 55.83663422 2.95518158 55.85930359 2.00517273 55.88265991 C-2.35927784 55.86837515 -5.37763114 55.71471319 -8.87524414 52.9453125 C-12.94423395 48.50158496 -12.49428102 44.15208375 -12.54443359 38.42333984 C-12.55250534 37.55160126 -12.56057709 36.67986267 -12.56889343 35.78170776 C-12.58271896 33.93749981 -12.59344796 32.09326642 -12.60131836 30.24902344 C-12.61854584 27.43293752 -12.6624464 24.61802149 -12.70654297 21.80224609 C-12.71666912 20.00928596 -12.72518547 18.21631587 -12.73193359 16.42333984 C-12.75819572 15.16373947 -12.75819572 15.16373947 -12.7849884 13.87869263 C-12.77034139 9.91966261 -12.61490927 7.80247747 -10.52954102 4.34472656 C-7.18812754 1.25757899 -4.54601019 0.04703005 0 0 Z " fill="#FCB504" transform="translate(103.30615234375,82.70947265625)"/>
<path d="M0 0 C8.80354377 -1.4672573 15.6261006 2.6776779 23 7 C24.22809244 7.93287791 25.44165402 8.885978 26.625 9.875 C30.93708417 12.59001596 34.40822204 12.68309939 39.42578125 12.859375 C42 13 42 13 44 14 C45.18807861 17.28180289 45.85768834 20.72335408 46.625 24.125 C46.96374146 25.6102417 46.96374146 25.6102417 47.30932617 27.12548828 C49.06032847 35.27659207 49.45967196 42.70136957 49 51 C36.5686851 52.82745769 24.32436569 53.34338038 11.76611328 53.31567383 C8.71221877 53.31246024 5.659248 53.33626524 2.60546875 53.36132812 C0.64843871 53.36359677 -1.30859391 53.36430664 -3.265625 53.36328125 C-4.17080872 53.372491 -5.07599243 53.38170074 -6.00860596 53.39118958 C-10.86437407 53.35542502 -14.0206448 53.09154062 -18 50 C-18.556875 49.608125 -19.11375 49.21625 -19.6875 48.8125 C-21.45073144 46.37756135 -21.83299582 43.96536632 -22.375 41.03515625 C-22.88384535 38.89391095 -22.88384535 38.89391095 -24.53515625 37.21484375 C-26.6680903 33.98984747 -26.43373408 31.32617867 -26.4375 27.5 C-26.45683594 26.1903125 -26.47617187 24.880625 -26.49609375 23.53125 C-25.91550467 19.39855292 -25.23208462 18.51538295 -22 16 C-19.25097656 15.45410156 -19.25097656 15.45410156 -16.140625 15.390625 C-15.02558594 15.35839844 -13.91054688 15.32617188 -12.76171875 15.29296875 C-11.60285156 15.27878906 -10.44398438 15.26460938 -9.25 15.25 C-8.07566406 15.22035156 -6.90132813 15.19070313 -5.69140625 15.16015625 C-2.79420178 15.08949273 0.10219955 15.03677734 3 15 C2.18402344 14.07574219 1.36804688 13.15148437 0.52734375 12.19921875 C-1.58802763 9.80313458 -1.98067237 9.14081562 -2.4375 5.8125 C-2 3 -2 3 0 0 Z " fill="#F4B298" transform="translate(496,285)"/>
<path d="M0 0 C8.65190342 0.56425457 15.5730503 4.04481862 21.4375 10.4375 C27.51172188 17.90500416 29.00410683 24.52842032 30 34 C30.12117188 35.06992188 30.24234375 36.13984375 30.3671875 37.2421875 C30.97163684 47.13097875 27.53341683 55.49143172 21.29296875 63.07421875 C17.17076936 66.90680226 12.17605441 68.94433684 7 71 C6.01 71.495 6.01 71.495 5 72 C3.29619832 72.29029177 1.58446393 72.53460465 -0.12963867 72.75610352 C-1.20223434 72.89617325 -2.27483002 73.03624298 -3.37992859 73.18055725 C-4.54748184 73.32851242 -5.7150351 73.47646759 -6.91796875 73.62890625 C-8.12254227 73.78286362 -9.32711578 73.93682098 -10.56819153 74.09544373 C-13.12943161 74.42105181 -15.69093915 74.74456175 -18.25268555 75.06616211 C-22.12740275 75.55491933 -26.00017415 76.05741247 -29.87304688 76.56054688 C-66.26951359 81.20253633 -66.26951359 81.20253633 -79.3125 72.125 C-83.29577682 68.9890604 -85.93135559 65.49350363 -87.9375 60.8125 C-88.94547478 58.76096057 -88.94547478 58.76096057 -91.5 57.5 C-94.33475451 55.7991473 -94.81620053 55.00948132 -96 52 C-96.84556913 47.18100424 -97.11280755 42.7884407 -94.46875 38.5390625 C-92.73070589 36.56595505 -90.95641531 34.75467464 -89 33 C-88.505 32.505 -88.505 32.505 -88 32 C-83.36124249 31.32910532 -80.03243589 31.28178373 -76.125 34 C-73.5765363 37.59783111 -72.34903844 40.81088062 -71 45 C-70.34 45 -69.68 45 -69 45 C-68.75765625 45.65226562 -68.5153125 46.30453125 -68.265625 46.9765625 C-64.85082007 55.88132305 -61.16071478 62.40624971 -52.75 67.3125 C-44.82883213 69.29279197 -36.16512448 67.7103848 -28.1875 66.6875 C-27.10597656 66.55142334 -26.02445312 66.41534668 -24.91015625 66.27514648 C-22.6888625 65.9930955 -20.46799052 65.7077025 -18.24755859 65.41894531 C-15.17317048 65.02233954 -12.09685112 64.64647711 -9.01953125 64.2734375 C-7.17951842 64.03777475 -5.33966526 63.80086084 -3.5 63.5625 C-2.67137451 63.46477295 -1.84274902 63.3670459 -0.98901367 63.26635742 C4.14880203 62.56934053 8.40170493 61.17561853 13.07226562 58.91772461 C15 58 15 58 18 57 C19.10168984 55.30230766 19.10168984 55.30230766 20 53 C20.53625 52.05125 21.0725 51.1025 21.625 50.125 C24.29732929 43.73344954 24.17944094 35.81680193 22.15625 29.26953125 C19.05289786 23.01040548 14.43211035 19.58886975 7.9296875 17.2578125 C6.30335455 16.77715539 4.65302363 16.37881791 3 16 C2.86722656 15.09636719 2.73445313 14.19273437 2.59765625 13.26171875 C2.33275391 11.49248047 2.33275391 11.49248047 2.0625 9.6875 C1.88847656 8.51574219 1.71445313 7.34398437 1.53515625 6.13671875 C1.07906969 2.98358597 1.07906969 2.98358597 0 0 Z " fill="#F5DFE0" transform="translate(140,165)"/>
<path d="M0 0 C6.17807634 -0.19279103 10.91053458 1.19737528 16.56640625 3.515625 C22.73104965 5.53454571 29.25875667 5.92566053 35.69140625 6.5390625 C39.63335355 16.8944955 37.789607 27.92489392 35.69140625 38.5390625 C23.83197884 37.34206157 12.18965279 35.4939326 0.49609375 33.18994141 C-2.19976768 32.66088842 -4.89844434 32.14836915 -7.59765625 31.63671875 C-33.14206404 26.70559221 -33.14206404 26.70559221 -41.30859375 18.5390625 C-42.05859375 15.0390625 -42.05859375 15.0390625 -42.30859375 11.5390625 C-41.64859375 10.8790625 -40.98859375 10.2190625 -40.30859375 9.5390625 C-40.18484375 8.8790625 -40.06109375 8.2190625 -39.93359375 7.5390625 C-39.30859375 5.5390625 -39.30859375 5.5390625 -37.61328125 4.43359375 C-30.1153983 1.5233985 -21.41785966 3.70287007 -14 5.8828125 C-11.26745383 6.54909371 -9.10303628 6.88776243 -6.30859375 6.5390625 C-5.77234375 5.5490625 -5.23609375 4.5590625 -4.68359375 3.5390625 C-2.30859375 0.5390625 -2.30859375 0.5390625 0 0 Z " fill="#F5B399" transform="translate(361.30859375,285.4609375)"/>
<path d="M0 0 C5.24555629 -0.43712969 5.24555629 -0.43712969 8 0 C12.17349447 4.06648179 13.17915159 7.12062829 13.3125 12.8125 C13.26617006 16.67178365 13.12809994 18.73355213 11.4375 22.25 C8.14559255 24.61342074 5.97009954 24.36091814 2 24 C1.01 24 0.02 24 -1 24 C-3.87895184 39.24302181 -5.08788246 54.00140387 3 67.875 C7.18933063 73.23314074 15.37605298 76.8545054 22 78 C42.5153999 79.73649092 62.9227733 74.09000379 82 67 C82.474375 68.11375 82.94875 69.2275 83.4375 70.375 C84.25306463 72.26710994 85.07856355 74.15712709 86 76 C62.56752738 84.68642045 34.47442683 94.74188716 9.625 85.32421875 C-0.78255578 80.07397856 -7.0707884 72.21864589 -11.23828125 61.4921875 C-15.76583105 46.67897328 -14.05073123 25.45397079 -7.8125 11.3125 C-7.214375 10.219375 -6.61625 9.12625 -6 8 C-3.125 7.875 -3.125 7.875 0 8 C0.66 8.66 1.32 9.32 2 10 C1.65238379 13.75425503 1.0165376 17.36950856 0 21 C1.65 20.34 3.3 19.68 5 19 C6.11599009 12.92923551 6.11599009 12.92923551 4.875 7 C2.6300718 4.60540992 1.22489472 4.26147795 -2 4 C-1.34 2.68 -0.68 1.36 0 0 Z " fill="#292952" transform="translate(75,263)"/>
<path d="M0 0 C1.5 4.5 1.5 4.5 3 9 C-0.14404137 10.27529753 -3.29055218 11.54439329 -6.4375 12.8125 C-7.75524414 13.34713867 -7.75524414 13.34713867 -9.09960938 13.89257812 C-39.8133273 26.24606615 -75.61439579 30.80809584 -107 18 C-108.66342837 16.33657163 -108.36048097 14.2174291 -108.5625 11.9375 C-108.64628906 11.01839844 -108.73007813 10.09929687 -108.81640625 9.15234375 C-108.90728516 8.08693359 -108.90728516 8.08693359 -109 7 C-104.35432784 7.81635906 -100.13276626 9.3343855 -95.71875 10.96484375 C-85.69314303 13.75558519 -75.61150906 14.36073995 -65.25 14.3125 C-63.41900757 14.30730347 -63.41900757 14.30730347 -61.55102539 14.30200195 C-52.06604628 14.18834547 -43.20310363 13.23859278 -34 11 C-33.0409375 10.7834375 -32.081875 10.566875 -31.09375 10.34375 C-21.87574419 8.06636033 -12.90606456 4.45142132 -4.1484375 0.81640625 C-2 0 -2 0 0 0 Z " fill="#2C2C55" transform="translate(267,255)"/>
<path d="M0 0 C2.12908706 3.16594743 2.25070762 5.41612811 2.40234375 9.20703125 C2.4590625 10.3775 2.51578125 11.54796875 2.57421875 12.75390625 C2.6 13.6459375 2.62578125 14.53796875 2.65234375 15.45703125 C2.06066406 15.74835938 1.46898437 16.0396875 0.859375 16.33984375 C-6.55507709 20.18616637 -11.01950632 24.14869586 -13.7890625 32.22265625 C-14.79492115 36.24609086 -15.10218444 40.32633326 -15.34765625 44.45703125 C-16.83265625 44.95203125 -16.83265625 44.95203125 -18.34765625 45.45703125 C-18.45722656 44.80476563 -18.56679687 44.1525 -18.6796875 43.48046875 C-19.61810231 38.30774321 -20.79008165 34.10716689 -23.34765625 29.45703125 C-23.34765625 28.79703125 -23.34765625 28.13703125 -23.34765625 27.45703125 C-26.13366848 26.52836051 -27.95831714 26.29360908 -30.84765625 26.26953125 C-31.62109375 26.25535156 -32.39453125 26.24117187 -33.19140625 26.2265625 C-35.64445681 26.32041597 -35.64445681 26.32041597 -38.34765625 28.45703125 C-38.21672247 20.3391371 -35.70250444 15.52379567 -30.34765625 9.45703125 C-23.7855572 3.34439104 -8.68635722 -5.7090035 0 0 Z " fill="#F7E1E2" transform="translate(87.34765625,171.54296875)"/>
<path d="M0 0 C-0.56539807 2.75481188 -1.1513361 5.50240078 -1.75 8.25 C-1.98589844 9.41595703 -1.98589844 9.41595703 -2.2265625 10.60546875 C-2.97135157 13.95701956 -3.72679664 16.56990758 -5.578125 19.484375 C-8.1969511 21.12325327 -9.62416174 21.31260434 -12.65136719 21.59472656 C-13.46482605 21.67386292 -14.27828491 21.75299927 -15.11639404 21.83453369 C-16.04877899 21.91643951 -16.04877899 21.91643951 -17 22 C-16.84853516 23.07894531 -16.69707031 24.15789062 -16.54101562 25.26953125 C-15.97643182 29.30181832 -15.41905685 33.33507545 -14.86376953 37.36865234 C-14.62319929 39.10883088 -14.38071759 40.84874635 -14.13623047 42.58837891 C-13.78360932 45.09990504 -13.43804678 47.61232082 -13.09375 50.125 C-12.9843811 50.89303955 -12.87501221 51.6610791 -12.7623291 52.45239258 C-12.10026401 57.34767786 -11.90197794 62.05968822 -12 67 C-12.66 66.67 -13.32 66.34 -14 66 C-14.57836914 63.33886719 -14.57836914 63.33886719 -15.03515625 59.796875 C-15.20466797 58.50523437 -15.37417969 57.21359375 -15.54882812 55.8828125 C-15.63334229 55.20250977 -15.71785645 54.52220703 -15.80493164 53.82128906 C-16.05643435 51.79877814 -16.32079257 49.7783161 -16.58789062 47.7578125 C-17.64833812 39.51801359 -18.45472175 31.28964335 -19 23 C-19.74378906 23.15726562 -20.48757812 23.31453125 -21.25390625 23.4765625 C-26.64454609 24.50408133 -30.32946893 24.9354974 -35.125 22.25 C-39.39297235 18.19308122 -41.83615135 12.38660195 -44 7 C-44 6.01 -44 5.02 -44 4 C-43.11739502 3.91435791 -42.23479004 3.82871582 -41.32543945 3.74047852 C-38.03584827 3.42006519 -34.74649536 3.09738675 -31.45727539 2.77319336 C-30.0364653 2.63361919 -28.61556741 2.4949357 -27.19458008 2.35717773 C-25.14640684 2.1584583 -23.09857578 1.95648663 -21.05078125 1.75390625 C-19.82012939 1.63345947 -18.58947754 1.5130127 -17.3215332 1.38891602 C-4.84226665 -0.07227264 -4.84226665 -0.07227264 0 0 Z " fill="#F6E0E1" transform="translate(145,250)"/>
<path d="M0 0 C6.47630923 -0.36658354 6.47630923 -0.36658354 8.875 1.3125 C11.14564011 4.71846017 11.10912935 7.72400509 11.0625 11.6875 C11.05347656 12.68136719 11.04445312 13.67523438 11.03515625 14.69921875 C11.02355469 15.45847656 11.01195312 16.21773437 11 17 C4.0025896 18.01858454 -2.99780635 19.01487231 -10 20 C-10.78262207 20.11166504 -11.56524414 20.22333008 -12.37158203 20.33837891 C-20.94643798 21.55174715 -29.32722198 22.29566289 -38 22 C-38.20496094 21.09636719 -38.40992187 20.19273437 -38.62109375 19.26171875 C-38.89050781 18.08222656 -39.15992187 16.90273437 -39.4375 15.6875 C-39.83775391 13.92986328 -39.83775391 13.92986328 -40.24609375 12.13671875 C-40.95313969 8.99763029 -40.95313969 8.99763029 -42 6 C-41.03698975 5.88406494 -40.07397949 5.76812988 -39.08178711 5.64868164 C-35.48289793 5.2152109 -31.88413173 4.78072629 -28.28540039 4.34594727 C-26.732699 4.15849938 -25.17996511 3.97132043 -23.62719727 3.78442383 C-21.38549177 3.51455559 -19.14390787 3.24369592 -16.90234375 2.97265625 C-16.21663803 2.89032242 -15.53093231 2.80798859 -14.82444763 2.72315979 C-11.58026409 2.32998166 -8.35801637 1.89657448 -5.13110352 1.37670898 C-2 1 -2 1 0 2 C0 1.34 0 0.68 0 0 Z " fill="#F3DDDF" transform="translate(130,164)"/>
<path d="M0 0 C1.36703913 2.47775842 1.41826612 4.02405919 1 6.8125 C-1.15762935 9.68933913 -3.35796975 10.54566943 -6.90814209 11.12257385 C-7.62649231 11.2091777 -8.34484253 11.29578156 -9.08496094 11.38500977 C-9.90301208 11.48503799 -10.72106323 11.58506622 -11.56390381 11.68812561 C-12.4451593 11.79233322 -13.32641479 11.89654083 -14.234375 12.00390625 C-15.14576233 12.11347153 -16.05714966 12.2230368 -16.99615479 12.33592224 C-18.92595721 12.56693299 -20.85595625 12.79630632 -22.78613281 13.02416992 C-25.72527965 13.37207388 -28.66342254 13.72768929 -31.6015625 14.08398438 C-33.47911067 14.30776203 -35.35671321 14.53108397 -37.234375 14.75390625 C-38.54411285 14.91325401 -38.54411285 14.91325401 -39.88031006 15.07582092 C-52.69485958 16.57032347 -52.69485958 16.57032347 -55.9375 14.6875 C-57.54125059 11.85735189 -57.53083754 9.99752524 -57 6.8125 C-52.69586524 3.26833177 -47.94880511 3.00386576 -42.60546875 2.42578125 C-41.69928299 2.31904587 -40.79309723 2.21231049 -39.85945129 2.1023407 C-37.94625001 1.87929555 -36.03237636 1.66195312 -34.11791992 1.44995117 C-31.20656011 1.12711356 -28.29766286 0.78682467 -25.38867188 0.44335938 C-23.52355628 0.22813485 -21.65832504 0.01390962 -19.79296875 -0.19921875 C-18.93124557 -0.29917648 -18.0695224 -0.39913422 -17.1816864 -0.50212097 C-3.39353468 -2.01491121 -3.39353468 -2.01491121 0 0 Z " fill="#F9E2E3" transform="translate(153,321.1875)"/>
<path d="M0 0 C47.52 0 95.04 0 144 0 C143.67 1.32 143.34 2.64 143 4 C95.81 4 48.62 4 0 4 C0 2.68 0 1.36 0 0 Z " fill="#F8E2E3" transform="translate(276,32)"/>
<path d="M0 0 C3.72114261 0.04141176 4.56343351 0.23606751 7.6875 2.5625 C10.88888213 6.92802109 12.03036166 10.47062469 12 15.875 C12.00515625 16.7928125 12.0103125 17.710625 12.015625 18.65625 C11.64991983 22.39934997 10.67711642 25.16363872 8.38671875 28.15625 C5.72203234 30.14045563 3.39826692 29.90231264 0.171875 29.796875 C-3.91191421 29.08550527 -7.20127429 27.15321527 -10.25 24.375 C-13.20453375 19.7876976 -13.23294047 14.62216751 -12.25 9.375 C-10.30237617 6.24489027 -7.98568858 3.8285912 -5.25 1.375 C-3.69049449 -0.18450551 -2.16122869 0.09303302 0 0 Z " fill="#F7E1E2" transform="translate(56.25,196.625)"/>
<path d="M0 0 C1.14901495 0.00138269 1.14901495 0.00138269 2.32124233 0.00279331 C3.19768902 0.00141865 4.0741357 0.00004398 4.97714138 -0.00137234 C6.43046368 0.00402058 6.43046368 0.00402058 7.91314602 0.00952244 C8.92766338 0.00937641 9.94218075 0.00923038 10.98744106 0.00907993 C14.35844936 0.00977954 17.72940317 0.01757414 21.10040188 0.02539158 C23.43067806 0.02725559 25.76095463 0.02867957 28.09123135 0.0296793 C34.23811828 0.03350581 40.38498176 0.04333723 46.5318594 0.05438328 C52.79884429 0.06459454 59.06583295 0.06917631 65.33282375 0.0742197 C77.63947471 0.08495938 89.94610822 0.10203739 102.25274563 0.12304783 C102.81524563 2.06054783 102.81524563 2.06054783 103.25274563 4.12304783 C102.25274563 5.12304783 102.25274563 5.12304783 100.50549126 5.24609566 C99.73948129 5.24517386 98.97347132 5.24425207 98.18424892 5.24330235 C96.8695789 5.24536434 96.8695789 5.24536434 95.52834988 5.24746799 C94.07502758 5.24207508 94.07502758 5.24207508 92.59234524 5.23657322 C91.57782787 5.23671925 90.56331051 5.23686527 89.51805019 5.23701572 C86.1470419 5.23631612 82.77608808 5.22852151 79.40508938 5.22070408 C77.0748132 5.21884007 74.74453662 5.21741609 72.41425991 5.21641636 C66.26737297 5.21258985 60.1205095 5.20275843 53.97363186 5.19171238 C47.70664697 5.18150112 41.43965831 5.17691935 35.1726675 5.17187595 C22.86601655 5.16113628 10.55938303 5.14405827 -1.74725437 5.12304783 C-2.30975437 3.18554783 -2.30975437 3.18554783 -2.74725437 1.12304783 C-1.74725437 0.12304783 -1.74725437 0.12304783 0 0 Z " fill="#E3D3E3" transform="translate(202.74725437164307,92.87695217132568)"/>
<path d="M0 0 C1.423125 0.7425 1.423125 0.7425 2.875 1.5 C10.90942809 4.8744598 18.89494578 2.79377797 27.01953125 0.65625 C29.79676782 0.04474837 32.17030147 -0.12553191 35 0 C27.69791256 9.27562459 18.90139664 16.39976525 8 21 C6.989375 21.433125 5.97875 21.86625 4.9375 22.3125 C0.96410467 23.24244359 -2.93520143 23.36797124 -7 23 C-8 22 -8 22 -8.5 19.5 C-7.83785136 14.86495955 -5.57941504 12.77213685 -2.625 9.2578125 C-0.34431012 6.08896935 -0.08185332 3.84710617 0 0 Z " fill="#F3B298" transform="translate(495,206)"/>
<path d="M0 0 C41.91 0 83.82 0 127 0 C127 1.32 127 2.64 127 4 C85.09 4 43.18 4 0 4 C0 2.68 0 1.36 0 0 Z " fill="#FAE3E3" transform="translate(200,206)"/>
<path d="M0 0 C1.51400391 0.01740234 1.51400391 0.01740234 3.05859375 0.03515625 C4.07050781 0.04417969 5.08242187 0.05320312 6.125 0.0625 C7.29869141 0.07990234 7.29869141 0.07990234 8.49609375 0.09765625 C10.00410943 4.03213334 11.50112289 7.97070602 12.99609375 11.91015625 C13.42535156 13.02970703 13.85460937 14.14925781 14.296875 15.30273438 C14.70292969 16.37587891 15.10898438 17.44902344 15.52734375 18.5546875 C15.90439453 19.5444458 16.28144531 20.5342041 16.66992188 21.55395508 C17.49609375 24.09765625 17.49609375 24.09765625 17.49609375 27.09765625 C14.52609375 27.09765625 11.55609375 27.09765625 8.49609375 27.09765625 C8.16609375 25.77765625 7.83609375 24.45765625 7.49609375 23.09765625 C4.52609375 23.42765625 1.55609375 23.75765625 -1.50390625 24.09765625 C-1.83390625 25.08765625 -2.16390625 26.07765625 -2.50390625 27.09765625 C-5.47390625 27.09765625 -8.44390625 27.09765625 -11.50390625 27.09765625 C-10.81961756 21.36673843 -8.93300183 16.18894809 -7.00390625 10.78515625 C-6.52244141 9.4074707 -6.52244141 9.4074707 -6.03125 8.00195312 C-3.24901569 0.12671668 -3.24901569 0.12671668 0 0 Z " fill="#080500" transform="translate(110.50390625,96.90234375)"/>
<path d="M0 0 C37.29 0 74.58 0 113 0 C113 1.32 113 2.64 113 4 C75.71 4 38.42 4 0 4 C0 2.68 0 1.36 0 0 Z " fill="#F8E2E3" transform="translate(303,150)"/>
<path d="M0 0 C0.33 0 0.66 0 1 0 C1.16335585 5.23419357 0.60552037 9.86306192 -0.5 14.9375 C-0.64308594 15.62134766 -0.78617188 16.30519531 -0.93359375 17.00976562 C-1.28283771 18.67449514 -1.64052946 20.33744875 -2 22 C-25.50418639 27.73522631 -25.50418639 27.73522631 -33.5625 24.625 C-36 23 -36 23 -37 21 C-36.04480469 20.92523438 -35.08960938 20.85046875 -34.10546875 20.7734375 C-21.74833277 19.5167796 -12.12412564 15.89505221 -4 6 C-2.59002273 4.03810502 -1.29461957 2.04151548 0 0 Z " fill="#EE6C61" transform="translate(532,184)"/>
<path d="M0 0 C2.86724686 0.57344937 3.8614515 0.8614515 6 3 C5.79059678 8.44448372 4.51654039 11.85228569 1 16 C-5.0639793 20.61958177 -10.27649443 22.67750049 -18 22 C-20.9375 20.1875 -20.9375 20.1875 -23 18 C-23 17.01 -23 16.02 -23 15 C-22.2265625 14.70867187 -21.453125 14.41734375 -20.65625 14.1171875 C-12.30461904 10.83028324 -5.27284725 7.45250447 0 0 Z " fill="#C14849" transform="translate(509,172)"/>
<path d="M0 0 C3.72114261 0.04141176 4.56343351 0.23606751 7.6875 2.5625 C10.88888213 6.92802109 12.03036166 10.47062469 12 15.875 C12.00515625 16.7928125 12.0103125 17.710625 12.015625 18.65625 C11.65003652 22.39815562 10.65974452 25.15493447 8.41015625 28.171875 C6.22559634 29.75503842 4.86028219 29.71306531 2.1875 29.625 C1.00994141 29.60179687 1.00994141 29.60179687 -0.19140625 29.578125 C-2.25 29.375 -2.25 29.375 -4.25 28.375 C-4.25 27.715 -4.25 27.055 -4.25 26.375 C-3.46625 26.1275 -2.6825 25.88 -1.875 25.625 C1.19487151 24.16315642 1.55448061 23.4625111 2.75 20.375 C3.35587815 15.39432524 3.08028534 10.88992784 0.75 6.375 C-1.89 6.045 -4.53 5.715 -7.25 5.375 C-4.74809098 0.20438802 -4.74809098 0.20438802 0 0 Z " fill="#333263" transform="translate(56.25,196.625)"/>
<path d="M0 0 C2.75329021 1.79562405 4.52627461 3.05254922 6 6 C6.39967133 9.59704193 6.2209028 11.56779887 4.5625 14.8125 C1.42609835 17.48991604 -0.73947048 18.03533507 -4.8046875 18.25 C-7 18 -7 18 -10.0625 16.125 C-12.62174282 11.997189 -13.08758307 8.73938639 -12 4 C-8.55770534 -0.27679033 -5.3165665 -0.7595095 0 0 Z " fill="#272852" transform="translate(146,192)"/>
<path d="M0 0 C2.91963173 1.98783437 4.61102978 3.4314697 5.48046875 6.9375 C5.75815509 10.90015906 5.23092162 12.66411401 2.9375 16 C-0.76272533 18.51930235 -2.6031656 18.7066341 -7 18 C-9.9375 16.5625 -9.9375 16.5625 -12 14 C-12.72259546 10.85112873 -12.6900808 8.1530521 -12 5 C-8.68934065 0.08417248 -5.82075974 -1.03942138 0 0 Z " fill="#262751" transform="translate(105,197)"/>
<path d="M0 0 C2.97 0 5.94 0 9 0 C9 8.91 9 17.82 9 27 C6.03 27 3.06 27 0 27 C0 18.09 0 9.18 0 0 Z " fill="#0A0700" transform="translate(132,97)"/>
<path d="M0 0 C1.0127944 4.18451089 2.00793368 8.37303075 3 12.5625 C3.42925781 14.33463867 3.42925781 14.33463867 3.8671875 16.14257812 C6.56234002 27.59697632 6.56234002 27.59697632 6 33 C3.20457695 36.22548813 0.1307747 36.61030427 -4 37 C-7.00229347 37.06879232 -9.99766775 37.06004664 -13 37 C-13 36.34 -13 35.68 -13 35 C-5.08 34.01 -5.08 34.01 3 33 C3.07874565 26.25344095 3.07874565 26.25344095 2 20 C1.814375 19.236875 1.62875 18.47375 1.4375 17.6875 C1.293125 17.130625 1.14875 16.57375 1 16 C0.34 16.33 -0.32 16.66 -1 17 C-1.65772428 20.02934491 -1.65772428 20.02934491 -2 23 C-2.33 23 -2.66 23 -3 23 C-3.02578125 22.41992188 -3.0515625 21.83984375 -3.078125 21.2421875 C-3.46818403 15.87001082 -4.08934268 12.01093058 -8 8 C-10.76881127 7.20588587 -13.08310083 7.09722997 -16 7 C-14.63016497 3.83884224 -14.0109362 3.0072908 -11 1 C-9.0625 0.5859375 -9.0625 0.5859375 -7 0.375 C-6.319375 0.30023438 -5.63875 0.22546875 -4.9375 0.1484375 C-3.29573423 0.02265706 -1.64657692 0 0 0 Z " fill="#EFDADD" transform="translate(91,256)"/>
<path d="M0 0 C0.66 0.33 1.32 0.66 2 1 C1.43418205 3.58831615 0.84832113 6.16918198 0.25 8.75 C0.01410156 9.84441406 0.01410156 9.84441406 -0.2265625 10.9609375 C-1.25349887 15.30566828 -2.05946564 18.48314257 -6 21 C-8.20526123 21.36981201 -8.20526123 21.36981201 -10.65136719 21.59667969 C-11.87155548 21.71496124 -11.87155548 21.71496124 -13.11639404 21.83563232 C-14.04877899 21.91699432 -14.04877899 21.91699432 -15 22 C-14.84853516 23.07894531 -14.69707031 24.15789062 -14.54101562 25.26953125 C-13.97643182 29.30181832 -13.41905685 33.33507545 -12.86376953 37.36865234 C-12.62319929 39.10883088 -12.38071759 40.84874635 -12.13623047 42.58837891 C-11.78360932 45.09990504 -11.43804678 47.61232082 -11.09375 50.125 C-10.9843811 50.89303955 -10.87501221 51.6610791 -10.7623291 52.45239258 C-10.10026401 57.34767786 -9.90197794 62.05968822 -10 67 C-10.66 66.67 -11.32 66.34 -12 66 C-12.57836914 63.33886719 -12.57836914 63.33886719 -13.03515625 59.796875 C-13.20466797 58.50523437 -13.37417969 57.21359375 -13.54882812 55.8828125 C-13.63334229 55.20250977 -13.71785645 54.52220703 -13.80493164 53.82128906 C-14.05643435 51.79877814 -14.32079257 49.7783161 -14.58789062 47.7578125 C-15.64833812 39.51801359 -16.45472175 31.28964335 -17 23 C-17.74378906 23.15726562 -18.48757812 23.31453125 -19.25390625 23.4765625 C-24.64454609 24.50408133 -28.32946893 24.9354974 -33.125 22.25 C-37.37041931 18.21509735 -39.94835966 12.40451559 -42 7 C-41.67 6.34 -41.34 5.68 -41 5 C-38.5087118 8.93092605 -36.05518323 12.85835541 -33.8125 16.9375 C-32.34068105 20.05547112 -32.34068105 20.05547112 -30 21 C-25.9799524 20.91488499 -21.99597327 20.42863381 -18 20 C-16.89269531 19.91105469 -15.78539062 19.82210938 -14.64453125 19.73046875 C-11.60753236 19.39384646 -8.89222341 18.98724934 -6 18 C-4.03966959 15.20801426 -3.63657788 14.17172135 -3 11 C-2.44107819 9.01981987 -1.87842546 7.04068991 -1.3125 5.0625 C-0.86996137 3.37631435 -0.43071175 1.68924536 0 0 Z " fill="#4A4669" transform="translate(143,250)"/>
<path d="M0 0 C2.875 0.1875 2.875 0.1875 5 1 C5.6640625 2.7734375 5.6640625 2.7734375 6 5 C4.02916797 8.51193377 1.12495147 11.281281 -2.25 13.4375 C-7.75411567 14.56334184 -12.99292376 14.9633966 -18.125 12.5 C-18.74375 12.005 -19.3625 11.51 -20 11 C-18.8140267 7.4420801 -18.28931514 6.72689045 -15 5 C-13.54109528 4.99167925 -12.08140242 5.03918504 -10.625 5.125 C-7.23573787 5.29074656 -7.23573787 5.29074656 -4.2578125 3.86328125 C-3.51144531 3.15751953 -3.51144531 3.15751953 -2.75 2.4375 C-1.8425 1.633125 -0.935 0.82875 0 0 Z " fill="#2E2E56" transform="translate(294,253)"/>
<path d="M0 0 C2.25 0.375 2.25 0.375 3.25 1.375 C3.625 3.625 3.625 3.625 3.25 6.375 C-0.14110415 10.44432498 -3.69170882 14.00598305 -9.11328125 14.66015625 C-14.14419464 14.83157997 -17.66826448 14.64038842 -21.75 11.375 C-20.75 8.375 -20.75 8.375 -18.6875 6.6875 C-15.75635966 5.37784155 -14.80135175 5.29811472 -11.75 5.5 C-9.69148605 5.65800132 -9.69148605 5.65800132 -7.75 5.375 C-2.31058589 0.31507989 -2.31058589 0.31507989 0 0 Z " fill="#2C2C54" transform="translate(186.75,327.625)"/>
<path d="M0 0 C0.66 0.66 1.32 1.32 2 2 C1.625 4.625 1.625 4.625 1 7 C0.37351562 7.19335938 -0.25296875 7.38671875 -0.8984375 7.5859375 C-1.71570313 7.84632813 -2.53296875 8.10671875 -3.375 8.375 C-4.18710937 8.63023437 -4.99921875 8.88546875 -5.8359375 9.1484375 C-8.16459185 9.89854283 -8.16459185 9.89854283 -10 12 C-10.64767793 14.57061311 -10.64767793 14.57061311 -11 17 C-13.64 17.66 -16.28 18.32 -19 19 C-19.5536991 13.83214175 -19.41024388 10.95779143 -16.3125 6.6875 C-11.33192465 0.77814603 -7.61361739 -0.624067 0 0 Z " fill="#2E2E56" transform="translate(287,234)"/>
<path d="M0 0 C1 1 1 1 1.1875 3.4375 C1 6 1 6 -1 8 C-2.30229968 8.29861649 -3.61745486 8.54351249 -4.9375 8.75 C-7.09954151 9.17340335 -7.09954151 9.17340335 -9 10 C-10.66666667 12.91666667 -10.66666667 12.91666667 -12 16 C-16.9 19 -16.9 19 -20 19 C-19.7321679 12.97377769 -19.14253112 8.68760101 -15 4 C-10.17337672 0.06764956 -6.11718884 -0.52734387 0 0 Z " fill="#2F2F57" transform="translate(178,309)"/>
<path d="M0 0 C0.99 0 1.98 0 3 0 C1.69179458 14.99952073 -0.08472882 29.8962011 -2.125 44.8125 C-2.40532314 46.8847149 -2.68527268 48.95698038 -2.96484375 51.02929688 C-3.63894834 56.02012146 -4.31801882 61.01024589 -5 66 C-6.485 66.495 -6.485 66.495 -8 67 C-7.40370715 55.32088491 -5.92617477 43.78208999 -4.41601562 32.19287109 C-3.9973086 28.97934382 -3.58411062 25.76514451 -3.171875 22.55078125 C-2.9065648 20.49214691 -2.64095077 18.43355169 -2.375 16.375 C-2.25205566 15.42181885 -2.12911133 14.4686377 -2.00244141 13.48657227 C-1.41378581 8.97503455 -0.78918477 4.4819739 0 0 Z " fill="#1C352C" transform="translate(458,258)"/>
<path d="M0 0 C5.24555629 -0.43712969 5.24555629 -0.43712969 8 0 C12.17349447 4.06648179 13.17915159 7.12062829 13.3125 12.8125 C13.26617006 16.67178365 13.12809994 18.73355213 11.4375 22.25 C8.11280956 24.63695724 6.00475881 24.50969658 2 24 C1.01 23.34 0.02 22.68 -1 22 C-0.67 21.34 -0.34 20.68 0 20 C2.5625 19.375 2.5625 19.375 5 19 C6.11599009 12.92923551 6.11599009 12.92923551 4.875 7 C2.6300718 4.60540992 1.22489472 4.26147795 -2 4 C-1.34 2.68 -0.68 1.36 0 0 Z " fill="#363565" transform="translate(75,263)"/>
<path d="M0 0 C-1.33683421 5.5903976 -1.33683421 5.5903976 -4.125 7.3125 C-7.74881127 8.17906357 -11.29256785 8.71913393 -15 9 C-15.93070313 9.08894531 -16.86140625 9.17789063 -17.8203125 9.26953125 C-19.27050781 9.35267578 -19.27050781 9.35267578 -20.75 9.4375 C-21.65234375 9.49808594 -22.5546875 9.55867187 -23.484375 9.62109375 C-26 9 -26 9 -28.328125 5.97265625 C-28.87984375 4.99167969 -29.4315625 4.01070312 -30 3 C-26.05015501 2.4039905 -22.09918242 1.81621157 -18.14697266 1.23608398 C-16.80223454 1.03750698 -15.45782801 0.83667102 -14.11376953 0.63354492 C-12.18350144 0.34222402 -10.25191879 0.05965544 -8.3203125 -0.22265625 C-6.57645264 -0.48187866 -6.57645264 -0.48187866 -4.79736328 -0.74633789 C-2 -1 -2 -1 0 0 Z " fill="#F5DFE1" transform="translate(129,166)"/>
<path d="M0 0 C5.73138244 -0.15490223 10.89349206 0.34755115 16.5 1.5 C17.22703125 1.64308594 17.9540625 1.78617187 18.703125 1.93359375 C20.47009071 2.28233698 22.23525309 2.64019723 24 3 C24 4.98 24 6.96 24 9 C19.71374604 10.20750811 16.77242305 9.68550839 12.5 8.5625 C6.97913812 7.12423809 2.53070879 6.36127147 -3 8 C-2.5359375 7.13375 -2.5359375 7.13375 -2.0625 6.25 C-1.07416636 4.15705816 -0.4831387 2.25464725 0 0 Z " fill="#EF796B" transform="translate(322,291)"/>
<path d="M0 0 C0.99 0.33 1.98 0.66 3 1 C6.46080137 8.56198724 7.87817418 17.42533986 9.75 25.5 C10.08427002 26.93315552 10.08427002 26.93315552 10.42529297 28.39526367 C10.63041504 29.30638916 10.83553711 30.21751465 11.046875 31.15625 C11.23088867 31.96900391 11.41490234 32.78175781 11.60449219 33.61914062 C12.0200676 36.12080199 12.06862619 38.46870628 12 41 C-3.74487472 45.59225513 -3.74487472 45.59225513 -11 45 C-11 44.01 -11 43.02 -11 42 C-9.97519531 41.86722656 -8.95039062 41.73445313 -7.89453125 41.59765625 C-6.5338426 41.41935912 -5.17316615 41.24096877 -3.8125 41.0625 C-2.80219727 40.93198242 -2.80219727 40.93198242 -1.77148438 40.79882812 C1.85265617 40.3215023 5.42083284 39.7374435 9 39 C8.79842285 38.17387207 8.5968457 37.34774414 8.38916016 36.49658203 C7.63085118 33.38450987 6.87440034 30.27199315 6.11914062 27.15917969 C5.79401981 25.82078709 5.46819283 24.48256579 5.14160156 23.14453125 C3.2659644 15.45787098 1.45653935 7.77814948 0 0 Z " fill="#182520" transform="translate(549,254)"/>
<path d="M0 0 C0.99 0 1.98 0 3 0 C3 0.66 3 1.32 3 2 C3.84691406 2.35384766 3.84691406 2.35384766 4.7109375 2.71484375 C7.52071963 4.29234942 9.39619051 6.24051286 11.625 8.5625 C14.51070681 11.69042054 14.51070681 11.69042054 18 14 C18 16 18 16 16.53125 17.48046875 C15.8609375 18.04378906 15.190625 18.60710938 14.5 19.1875 C12.22446484 21.10735649 9.97431289 23.02386856 7.79296875 25.05078125 C7.09816406 25.69402344 6.40335938 26.33726563 5.6875 27 C4.73423828 27.8971875 4.73423828 27.8971875 3.76171875 28.8125 C3.18035156 29.204375 2.59898437 29.59625 2 30 C1.01 29.67 0.02 29.34 -1 29 C0.53218685 25.36938333 2.7183144 23.0136227 5.5 20.25 C6.2940625 19.45078125 7.088125 18.6515625 7.90625 17.828125 C10 16 10 16 12 16 C11.34 15.34 10.68 14.68 10 14 C6.33333333 10.33333333 2.66666667 6.66666667 -1 3 C-0.67 2.01 -0.34 1.02 0 0 Z " fill="#ECFAF3" transform="translate(201,21)"/>
<path d="M0 0 C-0.40897518 4.8990005 -2.39206367 6.6995983 -6.0625 9.8125 C-6.98160156 10.60269531 -7.90070313 11.39289062 -8.84765625 12.20703125 C-9.55792969 12.79871094 -10.26820313 13.39039063 -11 14 C-9.85996765 17.42009706 -8.77829802 18.28869442 -6.0625 20.5625 C-3.96656037 22.33130568 -1.94005112 24.05994888 0 26 C0 26.99 0 27.98 0 29 C-5.0170542 28.63445871 -7.43407949 26.01457943 -10.6875 22.5 C-13.98408916 18.79387845 -13.98408916 18.79387845 -18 16 C-16.46518706 12.19331705 -14.13477919 10.1037511 -11.0625 7.4375 C-7.59797526 4.45218558 -7.59797526 4.45218558 -4.37109375 1.22265625 C-3 0 -3 0 0 0 Z " fill="#EEFAF4" transform="translate(182,21)"/>
<path d="M0 0 C2 1 2 1 2.6328125 2.78515625 C3.75462307 7.97575594 4.28460279 12.68741451 4 18 C1.85531351 20.14468649 -2.58444894 19.7395788 -5.5625 20.0625 C-6.36880859 20.15337891 -7.17511719 20.24425781 -8.00585938 20.33789062 C-10.00347377 20.56247449 -12.0016856 20.78173236 -14 21 C-13.67 19.35 -13.34 17.7 -13 16 C-11.906875 15.79375 -10.81375 15.5875 -9.6875 15.375 C-5.86356822 14.34711997 -5.86356822 14.34711997 -4.125 11.3125 C-2.95480398 7.86692284 -2.49343417 4.59502037 -2 1 C-1.34 0.67 -0.68 0.34 0 0 Z " fill="#F3DEE0" transform="translate(91,271)"/>
<path d="M0 0 C0.99 0 1.98 0 3 0 C2.07123186 6.51996475 -0.01518407 12.57918239 -2.12817383 18.7878418 C-2.81481168 20.81933938 -3.47858847 22.85748996 -4.14257812 24.89648438 C-4.57933637 26.18797186 -5.01744017 27.47900525 -5.45703125 28.76953125 C-6.0444812 30.52680542 -6.0444812 30.52680542 -6.64379883 32.31958008 C-8 35 -8 35 -10.15893555 35.8894043 C-10.76648682 35.92590088 -11.37403809 35.96239746 -12 36 C-11.53029342 28.16177152 -8.78113746 21.35139776 -6 14.0625 C-5.53051361 12.80691573 -5.06175757 11.55105811 -4.59375 10.29492188 C-1.15605828 1.15605828 -1.15605828 1.15605828 0 0 Z " fill="#ECFAF3" transform="translate(196,18)"/>
<path d="M0 0 C3.29998203 2.08774373 4.65575564 3.5140531 5.54296875 7.34375 C5.84059059 11.07244631 5.7941139 13.81930866 3.66796875 16.98046875 C0.63191302 19.8657497 -1.44471434 20.91383498 -5.625 21.5625 C-9.17488738 20.9708521 -11.16419014 20.18762475 -14 18 C-16.839805 13.7402925 -16.98909682 9.99184799 -16 5 C-12.16974008 -1.20023325 -6.63270437 -2.30594956 0 0 Z M-11.9375 2.9375 C-14.35365674 6.52512667 -14.7425028 8.65704919 -14.48046875 12.90625 C-14.10186623 15.2554401 -14.10186623 15.2554401 -11.9375 17.5625 C-8.22793965 19.37781677 -6.08316143 19.65622237 -2 19 C0.91963173 17.01216563 2.61102978 15.5685303 3.48046875 12.0625 C3.75815509 8.09984094 3.23092162 6.33588599 0.9375 3 C-3.81191873 -0.23364679 -7.14635184 -0.222619 -11.9375 2.9375 Z " fill="#7388C4" transform="translate(107,196)"/>
<path d="M0 0 C2.9375 2.4375 2.9375 2.4375 5 5 C5.33 5.33 5.66 5.66 6 6 C6.66298348 10.49881649 6.76319636 14.68561442 4.0625 18.5 C0.62541025 21.30578755 -1.41961492 22.0796998 -5.77734375 22.3125 C-9.67346466 21.76471499 -11.35907923 19.83898983 -14 17 C-15.76955269 13.46089463 -15.77257306 9.84355096 -15 6 C-11.21757865 0.3148362 -6.50516354 -1.15414192 0 0 Z M-10.9375 3.4375 C-13.54711149 6.67974457 -13.73581782 8.71840301 -13.47265625 12.80078125 C-13.06878696 15.28050049 -13.06878696 15.28050049 -11.0625 18.125 C-7.33593885 20.40656805 -5.31572847 20.45995074 -1.09375 19.70703125 C2.21546624 18.58955338 3.43143392 17.06893364 5 14 C5.6602967 10.03821982 5.36550574 8.54825861 3.125 5.1875 C0.40819426 2.39078821 -0.39613102 2.05696877 -4.3125 1.6875 C-7.98910691 1.77491648 -7.98910691 1.77491648 -10.9375 3.4375 Z " fill="#798FCC" transform="translate(147,190)"/>
<path d="M0 0 C2.38526264 0.37081814 3.65724317 0.60434859 5.265625 2.4609375 C8.23373343 8.23225945 8.82729172 13.56443998 8 20 C6.47587215 24.70607896 6.47587215 24.70607896 3.875 26.3125 C2.946875 26.6528125 2.946875 26.6528125 2 27 C2.15984375 26.49339844 2.3196875 25.98679688 2.484375 25.46484375 C3.17943745 22.1422346 3.20964782 18.9554462 3.25 15.5625 C3.28867187 13.61537109 3.28867187 13.61537109 3.328125 11.62890625 C2.98317313 7.81390282 2.0920627 6.12157777 0 3 C0 2.01 0 1.02 0 0 Z " fill="#2B2A54" transform="translate(60,198)"/>
<path d="M0 0 C0.66 0 1.32 0 2 0 C3.0127944 4.18451089 4.00793368 8.37303075 5 12.5625 C5.42925781 14.33463867 5.42925781 14.33463867 5.8671875 16.14257812 C8.56234002 27.59697632 8.56234002 27.59697632 8 33 C5.20457695 36.22548813 2.1307747 36.61030427 -2 37 C-5.00229347 37.06879232 -7.99766775 37.06004664 -11 37 C-11 36.34 -11 35.68 -11 35 C-3.08 34.01 -3.08 34.01 5 33 C5.06638333 26.11662748 5.06638333 26.11662748 3.90625 19.765625 C3.68066406 18.86199219 3.45507812 17.95835937 3.22265625 17.02734375 C2.98417969 16.11082031 2.74570313 15.19429688 2.5 14.25 C2.02715837 12.4020838 1.55824846 10.55315599 1.09375 8.703125 C0.77954102 7.49124512 0.77954102 7.49124512 0.45898438 6.25488281 C0 4 0 4 0 0 Z " fill="#555070" transform="translate(89,256)"/>
<path d="M0 0 C-1.3276465 5.64249764 -5.32921943 8.0926774 -10 11 C-12.9167225 12.57126664 -15.80783421 14.08705318 -19 15 C-19.99 14.67 -20.98 14.34 -22 14 C-19.05479245 10.68664151 -15.85157744 8.56218831 -12.09375 6.3046875 C-10.03947287 5.0245969 -8.12305433 3.63916575 -6.1875 2.1875 C-3 0 -3 0 0 0 Z " fill="#FBF4F3" transform="translate(508,172)"/>
<path d="M0 0 C-0.36718488 4.54661274 -3.67376587 6.85736912 -6.875 9.6875 C-7.41769531 10.18572266 -7.96039063 10.68394531 -8.51953125 11.19726562 C-10.99002291 13.42312425 -12.81285986 14.93761995 -16 16 C-15.32599065 10.27092056 -12.65492634 6.4579113 -8.375 2.6875 C-4.9941349 0.28530638 -4.34272806 0 0 0 Z " fill="#F0EFEF" transform="translate(73,177)"/>
<path d="M0 0 C3.125 0.25 3.125 0.25 5.0625 1.4375 C6.125 3.25 6.125 3.25 5.9375 5.8125 C5.125 8.25 5.125 8.25 3.125 10.25 C0.29113833 10.6133156 -1.28022151 10.6068671 -3.75 9.125 C-4.875 7.25 -4.875 7.25 -4.625 4.125 C-3.63128627 0.31576402 -3.63128627 0.31576402 0 0 Z " fill="#FFFAEE" transform="translate(541.875,43.75)"/>
<path d="M0 0 C3 0.25 3 0.25 5 2.25 C5.36487512 5.09602594 5.40199375 6.6364306 3.8125 9.0625 C1.3864306 10.65199375 -0.15397406 10.61487512 -3 10.25 C-5 8.25 -5 8.25 -5.25 5.25 C-4.90584825 1.120179 -4.129821 0.34415175 0 0 Z " fill="#FFFBF3" transform="translate(520,43.75)"/>
<path d="M0 0 C3 0.25 3 0.25 5 2.25 C5.3125 5.25 5.3125 5.25 5 8.25 C2 10.25 2 10.25 -1.1875 9.875 C-2.5796875 9.565625 -2.5796875 9.565625 -4 9.25 C-4.625 5.875 -4.625 5.875 -5 2.25 C-3 0.25 -3 0.25 0 0 Z " fill="#FFFCF4" transform="translate(497,43.75)"/>
<path d="M0 0 C3.52778597 0.23518573 5.40809819 0.36863807 7.875 3 C9.80842048 8.15578794 9.87355102 12.90347756 7.75 18 C5.83578823 20.18767059 4.85278483 20.70488433 2 21 C2.32484375 20.43152344 2.6496875 19.86304688 2.984375 19.27734375 C4.98859462 14.78326667 4.5339201 9.7543089 3.125 5.125 C1.94112346 2.80234304 1.94112346 2.80234304 0 0 Z " fill="#CAB2AE" transform="translate(51,202)"/>
<path d="M0 0 C2.18246468 0.48499215 4.06950351 1.03319571 6.09375 2 C10.00048799 3.34425393 13.70763129 3.45984183 17.8125 3.625 C18.99489258 3.68300781 18.99489258 3.68300781 20.20117188 3.7421875 C22.1337538 3.83588844 24.06684376 3.91900779 26 4 C25.67 4.99 25.34 5.98 25 7 C7.66056725 7.75754803 7.66056725 7.75754803 1 3 C0.67 2.01 0.34 1.02 0 0 Z " fill="#EE6F63" transform="translate(471,311)"/>
<path d="M0 0 C0.495 0.99 0.495 0.99 1 2 C-0.24952408 5.2626462 -1.42473024 7.49445991 -4.0625 9.8125 C-8.33805209 11.54091468 -12.4255818 11.76098831 -17 12 C-18.31677734 12.13148438 -18.31677734 12.13148438 -19.66015625 12.265625 C-25.94541922 12.68274652 -25.94541922 12.68274652 -28.9609375 10.73046875 C-30.625 9.125 -30.625 9.125 -33 6 C-33 5.34 -33 4.68 -33 4 C-29.83884224 5.36983503 -29.0072908 5.9890638 -27 9 C-23.34997921 9.6083368 -19.68058772 9.24567582 -16 9 C-14.92621094 8.93039063 -13.85242188 8.86078125 -12.74609375 8.7890625 C-7.00384163 8.31718694 -7.00384163 8.31718694 -2.35546875 5.30859375 C-1.08121094 3.20236435 -1.08121094 3.20236435 0 0 Z " fill="#484467" transform="translate(130,165)"/>
<path d="M0 0 C4.39956716 2.68112681 7.84085787 6.30069066 10 11 C10 11.99 10 12.98 10 14 C6.50101544 12.58250092 5.22487452 11.07951947 3.3125 7.875 C1.11661502 4.72728991 1.11661502 4.72728991 -2.38671875 3.4765625 C-4.64130015 3.49779875 -6.77501307 3.64400209 -9 4 C-9 3.01 -9 2.02 -9 1 C-5.79745853 -0.60127074 -3.54685436 -0.40701607 0 0 Z " fill="#342826" transform="translate(505,147)"/>
<path d="M0 0 C7.26 0.33 14.52 0.66 22 1 C21.67 1.99 21.34 2.98 21 4 C18.4374282 4.02710123 15.87514635 4.04688771 13.3125 4.0625 C12.2306543 4.07506836 12.2306543 4.07506836 11.12695312 4.08789062 C7.28444618 4.10543632 3.73360474 3.93524221 0 3 C0 2.01 0 1.02 0 0 Z " fill="#EF7266" transform="translate(355,292)"/>
<path d="M0 0 C0.66 0 1.32 0 2 0 C1.86722656 0.58007812 1.73445313 1.16015625 1.59765625 1.7578125 C0.60295999 6.15770982 -0.31368332 10.53894158 -1 15 C0.32 15 1.64 15 3 15 C2.67 15.99 2.34 16.98 2 18 C-2.875 17.125 -2.875 17.125 -4 16 C-4.62831088 10.26062175 -4.11752917 5.98804668 -1 1 C-0.67 0.67 -0.34 0.34 0 0 Z " fill="#EF7266" transform="translate(488,159)"/>
<path d="M0 0 C1.9375 0.9375 1.9375 0.9375 4 3 C5.26583367 7.32215576 5.44516352 10.85194672 3.8125 15.0625 C2.9153125 16.0215625 2.9153125 16.0215625 2 17 C0.68 17 -0.64 17 -2 17 C-1.67 15.68 -1.34 14.36 -1 13 C-0.67 13.33 -0.34 13.66 0 14 C0 13.32453125 0 12.6490625 0 11.953125 C0 7.96875 0 3.984375 0 0 Z " fill="#CAB2B0" transform="translate(77,267)"/>
<path d="M0 0 C3.50927259 0.19495959 4.79648221 0.79648221 7.3125 3.3125 C10.17931874 7.9984246 9.30726164 13.72534179 9 19 C8.01 19.33 7.02 19.66 6 20 C5.96261719 19.11957031 5.92523438 18.23914063 5.88671875 17.33203125 C5.82097656 16.17058594 5.75523438 15.00914062 5.6875 13.8125 C5.60048828 12.08966797 5.60048828 12.08966797 5.51171875 10.33203125 C4.82185928 5.84004557 3.1811685 3.1811685 0 0 Z " fill="#292853" transform="translate(79,263)"/>
<path d="M0 0 C-0.66 2.64 -1.32 5.28 -2 8 C-6.49652778 8.36458333 -6.49652778 8.36458333 -8.8125 6.6875 C-10 5 -10 5 -10 2 C-6.38026598 0.68373308 -3.90432869 0 0 0 Z " fill="#2B2323" transform="translate(496,185)"/>
<path d="M0 0 C7.09406894 0.58476056 14.01563899 1.63233995 21 3 C21 3.99 21 4.98 21 6 C13.63428929 4.81034913 6.30518993 3.51922091 -1 2 C-0.67 1.34 -0.34 0.68 0 0 Z " fill="#EE6C60" transform="translate(325,291)"/>
<path d="M0 0 C7.26 0.66 14.52 1.32 22 2 C22 2.66 22 3.32 22 4 C18.89591193 4.05807043 15.7919636 4.09361914 12.6875 4.125 C11.36588867 4.15013672 11.36588867 4.15013672 10.01757812 4.17578125 C9.17001953 4.18222656 8.32246094 4.18867188 7.44921875 4.1953125 C6.66893311 4.20578613 5.88864746 4.21625977 5.0847168 4.22705078 C3 4 3 4 0 2 C0 1.34 0 0.68 0 0 Z " fill="#EE6A5F" transform="translate(475,324)"/>
<path d="M0 0 C1.1446875 0.0928125 1.1446875 0.0928125 2.3125 0.1875 C2.9725 1.5075 3.6325 2.8275 4.3125 4.1875 C3.425625 4.06375 2.53875 3.94 1.625 3.8125 C-1.60546899 3.84666175 -1.60546899 3.84666175 -3.12890625 5.5234375 C-4.33771551 7.06060987 -5.51417876 8.62307168 -6.6875 10.1875 C-7.3475 10.1875 -8.0075 10.1875 -8.6875 10.1875 C-9.0175 8.5375 -9.3475 6.8875 -9.6875 5.1875 C-9.089375 4.919375 -8.49125 4.65125 -7.875 4.375 C-5.64457307 3.32569956 -5.64457307 3.32569956 -4.25 1.5625 C-2.6875 0.1875 -2.6875 0.1875 0 0 Z " fill="#2E2423" transform="translate(482.6875,146.8125)"/>
<path d="M0 0 C3.56796095 1.09684152 5.12061711 2.57185799 7.16015625 5.6640625 C7.55515137 8.4706068 7.40227002 10.80712004 7.16015625 13.6640625 C6.83015625 13.6640625 6.50015625 13.6640625 6.16015625 13.6640625 C5.91265625 12.5915625 5.66515625 11.5190625 5.41015625 10.4140625 C4.13070772 6.57571691 3.48419517 4.91003474 0.16015625 2.6640625 C-3.27222812 2.09199844 -5.60886115 1.88560742 -8.625 3.79296875 C-10.09301219 5.01110652 -11.47442155 6.33194328 -12.83984375 7.6640625 C-12.52940772 4.76665951 -11.77305306 3.58683576 -9.83984375 1.3515625 C-6.16538178 -0.71532236 -4.08293072 -0.69525698 0 0 Z " fill="#798FCC" transform="translate(104.83984375,195.3359375)"/>
<path d="M0 0 C3 1 3 1 3.94921875 2.85546875 C5.37868052 7.37075277 6.3692425 11.19984755 6 16 C8.64 16 11.28 16 14 16 C14 16.33 14 16.66 14 17 C12.37828761 17.38897161 10.75245075 17.76078298 9.125 18.125 C8.22007813 18.33382812 7.31515625 18.54265625 6.3828125 18.7578125 C5.59648438 18.83773437 4.81015625 18.91765625 4 19 C3.34 18.34 2.68 17.68 2 17 C2.66 17 3.32 17 4 17 C3.7168444 14.91549283 3.42314331 12.83241633 3.125 10.75 C2.96257812 9.58984375 2.80015625 8.4296875 2.6328125 7.234375 C2.08179569 4.41806687 1.44203518 2.44782443 0 0 Z " fill="#534E6F" transform="translate(86,170)"/>
<path d="M0 0 C0.66 0 1.32 0 2 0 C1.64978759 2.53903996 1.15988127 3.82093298 -0.5625 5.75 C-4.05042412 7.53867904 -7.15320798 7.59909056 -11 7 C-13.5 5.625 -13.5 5.625 -15 4 C-15 3.34 -15 2.68 -15 2 C-14.44828125 2.32742187 -13.8965625 2.65484375 -13.328125 2.9921875 C-10.61219077 4.16787715 -8.69448241 4.20248638 -5.75 4.125 C-4.41195312 4.09792969 -4.41195312 4.09792969 -3.046875 4.0703125 C-2.37140625 4.04710937 -1.6959375 4.02390625 -1 4 C-0.67 2.68 -0.34 1.36 0 0 Z " fill="#7085BF" transform="translate(131,217)"/>
<path d="M0 0 C1.65 0.33 3.3 0.66 5 1 C5.93619813 4.15506142 6.1057123 6.96586502 6.0625 10.25 C6.05347656 11.14203125 6.04445313 12.0340625 6.03515625 12.953125 C6.02355469 13.62859375 6.01195313 14.3040625 6 15 C5.01 15.495 5.01 15.495 4 16 C4 13.03 4 10.06 4 7 C1.525 6.01 1.525 6.01 -1 5 C-0.34 4.67 0.32 4.34 1 4 C0.67 2.68 0.34 1.36 0 0 Z " fill="#EDD8D9" transform="translate(72,266)"/>
<path d="M0 0 C3 1 3 1 3.984375 2.92578125 C4.23703125 3.71339844 4.4896875 4.50101562 4.75 5.3125 C5.01296875 6.09238281 5.2759375 6.87226563 5.546875 7.67578125 C6.03298902 10.16921091 5.80665429 11.6181897 5 14 C4.34 13.67 3.68 13.34 3 13 C2.37330801 10.83532539 1.84572626 8.64135476 1.375 6.4375 C1.11460937 5.23996094 0.85421875 4.04242188 0.5859375 2.80859375 C0.39257812 1.88175781 0.19921875 0.95492187 0 0 Z " fill="#1C332B" transform="translate(549,254)"/>
<path d="M0 0 C0.33 0 0.66 0 1 0 C1.28875 0.886875 1.5775 1.77375 1.875 2.6875 C2.83148748 5.50382424 3.86798946 8.25083156 5 11 C2 11 2 11 -1 10 C-0.95875 9.21625 -0.9175 8.4325 -0.875 7.625 C-0.71271266 4.83883881 -0.71271266 4.83883881 -3 3 C-2.01 3 -1.02 3 0 3 C0 2.01 0 1.02 0 0 Z " fill="#E5D8DD" transform="translate(166,322)"/>
<path d="M0 0 C0.99 0 1.98 0 3 0 C2.88652381 1.97986082 2.7589065 3.95891598 2.625 5.9375 C2.52058594 7.59072266 2.52058594 7.59072266 2.4140625 9.27734375 C2.27742188 10.17582031 2.14078125 11.07429688 2 12 C1.01 12.495 1.01 12.495 0 13 C0 8.71 0 4.42 0 0 Z " fill="#192A24" transform="translate(458,258)"/>
<path d="M0 0 C1.32 0 2.64 0 4 0 C2.61918777 4.1424367 0.40174442 5.32203099 -3 8 C-3.33 7.01 -3.66 6.02 -4 5 C-2.3125 2.3125 -2.3125 2.3125 0 0 Z " fill="#EE6F63" transform="translate(540,165)"/>
<path d="M0 0 C0.33 0 0.66 0 1 0 C1.33 4.29 1.66 8.58 2 13 C1.01 13.33 0.02 13.66 -1 14 C-0.67 9.38 -0.34 4.76 0 0 Z " fill="#1E3B31" transform="translate(451,311)"/>
<path d="M0 0 C1.258125 -0.04125 2.51625 -0.0825 3.8125 -0.125 C4.52019531 -0.14820313 5.22789062 -0.17140625 5.95703125 -0.1953125 C8 0 8 0 11 2 C8.24921116 2.91692961 6.64051087 3.10886083 3.8125 3.0625 C1.9253125 3.0315625 1.9253125 3.0315625 0 3 C0 2.01 0 1.02 0 0 Z " fill="#1E3A30" transform="translate(538,296)"/>
<path d="M0 0 C1.2065625 0.0309375 1.2065625 0.0309375 2.4375 0.0625 C1.7775 1.7125 1.1175 3.3625 0.4375 5.0625 C-1.5425 5.0625 -3.5225 5.0625 -5.5625 5.0625 C-3.15007962 0.07683121 -3.15007962 0.07683121 0 0 Z " fill="#46436F" transform="translate(54.5625,196.9375)"/>
<path d="M0 0 C0.66 0.33 1.32 0.66 2 1 C2 2.98 2 4.96 2 7 C0.68 7 -0.64 7 -2 7 C-2.125 4.625 -2.125 4.625 -2 2 C-1.34 1.34 -0.68 0.68 0 0 Z " fill="#382B28" transform="translate(499,158)"/>
<path d="M0 0 C0.99 0 1.98 0 3 0 C3 1.98 3 3.96 3 6 C1.68 6 0.36 6 -1 6 C-1.042721 4.33388095 -1.04063832 2.66617115 -1 1 C-0.67 0.67 -0.34 0.34 0 0 Z " fill="#332826" transform="translate(478,157)"/>
<path d="M0 0 C0.33 0 0.66 0 1 0 C3.28571429 8.42857143 3.28571429 8.42857143 3 13 C0 11 0 11 -0.546875 9.16015625 C-0.61390625 8.46792969 -0.6809375 7.77570313 -0.75 7.0625 C-0.86601563 6.02802734 -0.86601563 6.02802734 -0.984375 4.97265625 C-1 3 -1 3 0 0 Z " fill="#1B332B" transform="translate(558,282)"/>
<path d="M0 0 C2.97 0.495 2.97 0.495 6 1 C7 4 7 4 6.0625 6.1875 C5.5365625 7.0846875 5.5365625 7.0846875 5 8 C4.731875 7.4225 4.46375 6.845 4.1875 6.25 C2.98280141 3.9674132 1.59201885 2.0262058 0 0 Z " fill="#D2B9B3" transform="translate(51,202)"/>
<path d="M0 0 C2.97752446 0.33083605 4.81374721 0.87415352 7.3125 2.5625 C9.78719807 6.13706388 9.28590207 8.71146895 9 13 C8.67 13 8.34 13 8 13 C7.7525 11.9275 7.505 10.855 7.25 9.75 C5.98306344 5.94919031 4.99305219 4.52538778 2 2 C1.34 1.34 0.68 0.68 0 0 Z " fill="#7F97D5" transform="translate(103,196)"/>
<path d="M0 0 C3.39608504 1.45546502 5.40860299 3.40860299 8 6 C10.13309192 7.23512079 10.13309192 7.23512079 12 8 C8.9361192 8.43769726 6.83395091 8.60855877 4.265625 6.734375 C2.71528294 5.21356327 1.28159145 3.75423511 0 2 C0 1.34 0 0.68 0 0 Z " fill="#3C3A5F" transform="translate(97,169)"/>
<path d="M0 0 C2.35953094 2.35953094 2.49141413 3.77895617 3 7 C1.35 7 -0.3 7 -2 7 C-1.125 1.125 -1.125 1.125 0 0 Z " fill="#BF8D02" transform="translate(113,107)"/>
<path d="M0 0 C0.33 0.66 0.66 1.32 1 2 C3.02463255 2.65213292 3.02463255 2.65213292 5 3 C4.2575 3.2475 3.515 3.495 2.75 3.75 C-0.20124062 5.09147301 -1.84814974 6.60905526 -4 9 C-3.46930939 5.17902761 -2.50298434 2.93828597 0 0 Z " fill="#C28E7B" transform="translate(479,144)"/>
<path d="M0 0 C2.31 0.33 4.62 0.66 7 1 C6.67 1.99 6.34 2.98 6 4 C3.36 3.67 0.72 3.34 -2 3 C-1.34 2.01 -0.68 1.02 0 0 Z " fill="#EF7668" transform="translate(339,297)"/>
<path d="M0 0 C0.53625 0.28875 1.0725 0.5775 1.625 0.875 C4.35280484 2.16711808 7.12612718 3.08558592 10 4 C10 4.33 10 4.66 10 5 C6.63295715 5.2295711 4.58629732 5.33943529 1.625 3.625 C1.08875 3.08875 0.5525 2.5525 0 2 C0 1.34 0 0.68 0 0 Z " fill="#798FCC" transform="translate(116,219)"/>
</svg>
